<svg width="227" height="58" viewBox="0 0 227 58" fill="none" xmlns="http://www.w3.org/2000/svg">
<path fill-rule="evenodd" clip-rule="evenodd" d="M106.779 49.395L110.508 51.0553L111.742 33.5089L106.739 31.2812L94.5483 43.9496L98.1618 45.5585L100.809 42.7301L107.109 45.5352L106.779 49.395ZM103.167 40.2384L107.984 35.0928L107.406 42.1257L103.167 40.2384Z" fill="white"/>
<path fill-rule="evenodd" clip-rule="evenodd" d="M113.784 8.42188L111.002 9.2195L109.864 18.4397L109.816 18.4533L103.965 11.2375L101.183 12.0352L101.484 29.1467L105.335 28.0422L104.971 18.2458L105.018 18.2322L110.058 24.2313L112.697 23.4745L113.815 15.7096L113.863 15.696L118.745 24.197L122.573 23.0994L113.784 8.42188Z" fill="white"/>
<path fill-rule="evenodd" clip-rule="evenodd" d="M115.286 45.2529L124.322 45.8848L127.076 43.4022C128.947 41.7102 130.713 40.1291 130.927 37.0665C131.214 32.9672 127.801 29.5562 123.125 29.2293L116.439 28.7617L115.286 45.2529ZM118.849 42.1877L119.541 32.293L122.215 32.48C125.125 32.7312 126.894 34.8866 126.697 37.6933C126.496 40.5714 124.436 42.5784 121.738 42.3898L118.849 42.1877Z" fill="white"/>
</svg>
