<svg width="51" height="38" viewBox="0 0 51 38" fill="none" xmlns="http://www.w3.org/2000/svg">
<path fill-rule="evenodd" clip-rule="evenodd" d="M2 0C0.895431 0 0 0.89543 0 2V12H12V0H2ZM13 0V12H25V0H13ZM26 0V12H38V0H26ZM39 0V12H51V2C51 0.895431 50.1046 0 49 0H39ZM51 13H39V25H51V13ZM51 26H39V38H49C50.1046 38 51 37.1046 51 36V26ZM38 38V26H26V38H38ZM25 38V26H13V38H25ZM12 38V26H0V36C0 37.1046 0.89543 38 2 38H12ZM0 25H12V13H0V25ZM26 13H38V25H26V13ZM25 25V13H13V25H25Z" fill="#D2D2D5"/>
<path fill-rule="evenodd" clip-rule="evenodd" d="M0.0103258 1.79551C0.00349778 1.86275 0 1.93096 0 2V12V36C0 37.1046 0.895431 38 2 38H12V12H51V2C51 0.895431 50.1046 0 49 0H12H2C0.964466 0 0.112746 0.787 0.0103258 1.79551Z" fill="#A7A7A7"/>
</svg>
