<svg width="97" height="78" viewBox="0 0 97 78" fill="none" xmlns="http://www.w3.org/2000/svg">
<g clip-path="url(#clip0)">
<path d="M6 0.5H91C94.0376 0.5 96.5 2.96243 96.5 6V72C96.5 75.0376 94.0376 77.5 91 77.5H6C2.96243 77.5 0.5 75.0376 0.5 72V6C0.5 2.96243 2.96243 0.5 6 0.5Z" stroke="#2B2A35" stroke-opacity="0.15"/>
<path d="M45.116 19.2201C44.9484 18.1284 43.9239 17.3698 42.853 17.6405C39.2294 18.5565 35.9032 20.4268 33.2293 23.0727C30.0798 26.1891 27.9968 30.2217 27.2781 34.5938C26.5594 38.9658 27.242 43.453 29.2281 47.4136C30.9144 50.7762 33.4669 53.6128 36.6066 55.6406C37.5345 56.2399 38.7479 55.8491 39.2562 54.8685L40.5859 52.3032C41.0943 51.3225 40.7007 50.1264 39.8017 49.4846C37.9401 48.1557 36.4208 46.3877 35.3866 44.3253C34.052 41.6641 33.5934 38.6489 34.0763 35.7112C34.5592 32.7735 35.9589 30.0638 38.0751 27.9698C39.7151 26.347 41.7204 25.1584 43.9094 24.4953C44.9665 24.1751 45.7223 23.1678 45.5546 22.0761L45.116 19.2201Z" fill="#FFBB5C"/>
<path d="M65.1817 46.1109C66.1806 46.5824 67.3824 46.1573 67.7568 45.1182C68.7241 42.4334 69.1364 39.5727 68.9603 36.7104C68.7432 33.181 67.6383 29.7636 65.7482 26.775C63.8581 23.7865 61.2439 21.3236 58.1481 19.6148C55.6375 18.229 52.8761 17.3756 50.0358 17.0989C48.9364 16.9918 48.0373 17.8955 48.0353 19L48.0299 21.8894C48.0278 22.994 48.926 23.8766 50.0192 24.0346C51.6978 24.2774 53.3244 24.8215 54.8188 25.6464C56.899 26.7946 58.6555 28.4495 59.9256 30.4576C61.1956 32.4657 61.938 34.762 62.0839 37.1335C62.1887 38.8372 61.9833 40.5401 61.4832 42.1607C61.1575 43.2161 61.57 44.4059 62.5688 44.8774L65.1817 46.1109Z" fill="#586EE0"/>
<path d="M41.5792 55.8823C41.206 56.9219 41.7447 58.0772 42.8151 58.3499C46.627 59.3212 50.6498 59.2053 54.4206 57.9945C58.1914 56.7836 61.5296 54.5357 64.0633 51.5267C64.7748 50.6818 64.5402 49.4288 63.6315 48.8009L61.2543 47.1583C60.3456 46.5304 59.1093 46.77 58.3594 47.5809C56.7173 49.3564 54.6381 50.6887 52.3142 51.4349C49.9904 52.1812 47.5242 52.3085 45.1555 51.821C44.0736 51.5983 42.929 52.1232 42.5557 53.1628L41.5792 55.8823Z" fill="#AB6EF9"/>
<rect x="8" y="35" width="6" height="6" rx="2" fill="#DDDFE5"/>
<rect x="79" y="14" width="6" height="6" rx="2" fill="#DDDFE5"/>
<rect x="79" y="58" width="6" height="6" rx="2" fill="#DDDFE5"/>
</g>
<defs>
<clipPath id="clip0">
<rect width="97" height="78" fill="white"/>
</clipPath>
</defs>
</svg>
