<svg width="97" height="78" viewBox="0 0 97 78" fill="none" xmlns="http://www.w3.org/2000/svg">
<g clip-path="url(#clip0)">
<path d="M6 0.5H91C94.0376 0.5 96.5 2.96243 96.5 6V72C96.5 75.0376 94.0376 77.5 91 77.5H6C2.96243 77.5 0.5 75.0376 0.5 72V6C0.5 2.96243 2.96243 0.5 6 0.5Z" stroke="#2B2A35" stroke-opacity="0.15"/>
<path d="M42 13C43.1046 13 44 13.8954 44 15C44 16.1046 43.1046 17 42 17H20V13L42 13Z" fill="#586EE0"/>
<path d="M42 13.3566C42.9076 13.3566 43.6434 14.0924 43.6434 15C43.6434 15.9076 42.9076 16.6434 42 16.6434H20.3566V13.3566L42 13.3566Z" stroke="white" stroke-opacity="0.02" stroke-width="0.713235"/>
<path d="M63 19C64.1046 19 65 19.8954 65 21C65 22.1046 64.1046 23 63 23L20 23V19L63 19Z" fill="#AB6EF9"/>
<path d="M63 19.3566C63.9076 19.3566 64.6434 20.0924 64.6434 21C64.6434 21.9076 63.9076 22.6434 63 22.6434L20.3566 22.6434V19.3566L63 19.3566Z" stroke="white" stroke-opacity="0.02" stroke-width="0.713235"/>
<path d="M62 27C63.1046 27 64 27.8954 64 29C64 30.1046 63.1046 31 62 31L20 31V27L62 27Z" fill="#586EE0"/>
<path d="M62 27.3566C62.9076 27.3566 63.6434 28.0924 63.6434 29C63.6434 29.9076 62.9076 30.6434 62 30.6434L20.3566 30.6434V27.3566L62 27.3566Z" stroke="white" stroke-opacity="0.02" stroke-width="0.713235"/>
<path d="M47 33C48.1046 33 49 33.8954 49 35C49 36.1046 48.1046 37 47 37H20V33H47Z" fill="#AB6EF9"/>
<path d="M47 33.3566C47.9076 33.3566 48.6434 34.0924 48.6434 35C48.6434 35.9076 47.9076 36.6434 47 36.6434H20.3566V33.3566H47Z" stroke="white" stroke-opacity="0.02" stroke-width="0.713235"/>
<path d="M58 41C59.1046 41 60 41.8954 60 43C60 44.1046 59.1046 45 58 45H20V41H58Z" fill="#586EE0"/>
<path d="M58 41.3566C58.9076 41.3566 59.6434 42.0924 59.6434 43C59.6434 43.9076 58.9076 44.6434 58 44.6434H20.3566V41.3566H58Z" stroke="white" stroke-opacity="0.02" stroke-width="0.713235"/>
<path d="M79 47C80.1046 47 81 47.8954 81 49C81 50.1046 80.1046 51 79 51H20V47L79 47Z" fill="#AB6EF9"/>
<path d="M79 47.3566C79.9076 47.3566 80.6434 48.0924 80.6434 49C80.6434 49.9076 79.9076 50.6434 79 50.6434H20.3566V47.3566L79 47.3566Z" stroke="white" stroke-opacity="0.02" stroke-width="0.713235"/>
<path d="M66 54C67.1046 54 68 54.8954 68 56C68 57.1046 67.1046 58 66 58H20V54H66Z" fill="#586EE0"/>
<path d="M66 54.3566C66.9076 54.3566 67.6434 55.0924 67.6434 56C67.6434 56.9076 66.9076 57.6434 66 57.6434H20.3566V54.3566H66Z" stroke="white" stroke-opacity="0.02" stroke-width="0.713235"/>
<path d="M45 60C46.1046 60 47 60.8954 47 62C47 63.1046 46.1046 64 45 64H20V60H45Z" fill="#AB6EF9"/>
<path d="M45 60.3566C45.9076 60.3566 46.6434 61.0924 46.6434 62C46.6434 62.9076 45.9076 63.6434 45 63.6434H20.3566V60.3566H45Z" stroke="white" stroke-opacity="0.02" stroke-width="0.713235"/>
<rect x="11" y="15" width="6" height="6" rx="2" fill="#DDDFE5"/>
<rect x="11" y="29" width="6" height="6" rx="2" fill="#DDDFE5"/>
<rect x="11" y="43" width="6" height="6" rx="2" fill="#DDDFE5"/>
<rect x="11" y="57" width="6" height="6" rx="2" fill="#DDDFE5"/>
</g>
<defs>
<clipPath id="clip0">
<rect width="97" height="78" fill="white"/>
</clipPath>
</defs>
</svg>
