<svg width="97" height="78" viewBox="0 0 97 78" fill="none" xmlns="http://www.w3.org/2000/svg">
<g clip-path="url(#clip0)">
<path d="M6 0.5H91C94.0376 0.5 96.5 2.96243 96.5 6V72C96.5 75.0376 94.0376 77.5 91 77.5H6C2.96243 77.5 0.5 75.0376 0.5 72V6C0.5 2.96243 2.96243 0.5 6 0.5Z" stroke="#2B2A35" stroke-opacity="0.15"/>
<path d="M48 17C43.4559 17 39.0345 18.4739 35.3994 21.2005C31.7642 23.9271 29.1115 27.7592 27.8395 32.1216C26.5676 36.4839 26.7449 41.1412 28.3449 45.3943C29.9449 49.6473 32.8812 53.2667 36.7131 55.7089L48 38V17Z" fill="#FFBB5C"/>
<path d="M66.2253 48.4328C68.0514 45.2428 69.0082 41.6293 69 37.9536C68.9919 34.2778 68.0191 30.6686 66.1789 27.4867C64.3387 24.3048 61.6956 21.6616 58.5137 19.8214C55.3318 17.9811 51.7226 17.0083 48.0469 17.0001L48.0001 38L66.2253 48.4328Z" fill="#586EE0"/>
<path d="M35.6903 55.014C38.2328 56.8535 41.1554 58.0998 44.243 58.6613C47.3306 59.2227 50.5048 59.085 53.5322 58.2582C56.5596 57.4315 59.3632 55.9368 61.7369 53.8839C64.1105 51.831 65.9939 49.2723 67.2486 46.3958L47.9999 38.0001L35.6903 55.014Z" fill="#AB6EF9"/>
<rect x="8" y="35" width="6" height="6" rx="2" fill="#DDDFE5"/>
<rect x="79" y="14" width="6" height="6" rx="2" fill="#DDDFE5"/>
<rect x="79" y="58" width="6" height="6" rx="2" fill="#DDDFE5"/>
</g>
<defs>
<clipPath id="clip0">
<rect width="97" height="78" fill="white"/>
</clipPath>
</defs>
</svg>
