<svg width="64" height="64" viewBox="0 0 64 64" fill="none" xmlns="http://www.w3.org/2000/svg">
<rect x="0.5" y="0.5" width="63" height="63" rx="5.5" stroke="#A7A7A7" stroke-dasharray="2 2"/>
<path d="M32.1062 19C36.2255 19 40 21.1996 40 25.7355C40 28.9811 38.1128 30.5257 36.3309 31.9236C34.1563 33.6051 33.3515 34.2307 33.3515 36.3912V37.4567H29.4813L29.4621 36.0686C29.3472 33.2825 30.9374 31.5619 32.9013 30.0955C34.664 28.7563 35.7657 27.8764 35.7657 25.9702C35.7657 23.4871 33.8976 22.4606 31.8954 22.4606C29.2226 22.4606 27.891 24.2789 27.8718 26.6251H24.0016C23.9058 20.9454 28.2167 19 32.1062 19ZM31.5026 40.0925C32.8917 40.0925 34.0126 41.119 34.0126 42.5365C34.0126 43.954 32.8917 45 31.5026 45C30.104 45 28.9735 43.954 28.9735 42.5365C28.9735 41.119 30.104 40.0925 31.5026 40.0925Z" fill="#D2D2D5"/>
</svg>
