<svg width="25" height="25" viewBox="0 0 25 25" fill="none" xmlns="http://www.w3.org/2000/svg">
<path d="M17.2177 10.6317L18.586 12H13V6.41402L14.3893 7.80331L15.0964 7.0962L13.2073 5.20711C12.8168 4.81658 12.1836 4.81658 11.7931 5.20711L9.88984 7.11035L10.5969 7.81746L12 6.41441V12H6.41441L7.76852 10.6459L7.06141 9.93878L5.17912 11.8211C4.7886 12.2116 4.7886 12.8448 5.17912 13.2353L7.06821 15.1244L7.77532 14.4173L6.35806 13H12V18.6419L10.6037 17.2457L9.89664 17.9528L11.7931 19.8492C12.1836 20.2398 12.8168 20.2398 13.2073 19.8492L15.0896 17.967L14.3825 17.2598L13 18.6423V13H18.6423L17.2109 14.4314L17.918 15.1385L19.8213 13.2353C20.2118 12.8448 20.2118 12.2116 19.8213 11.8211L17.9248 9.92463L17.2177 10.6317Z" fill="#586EE0"/>
<path fill-rule="evenodd" clip-rule="evenodd" d="M25 12.5C25 19.4036 19.4036 25 12.5 25C5.59644 25 0 19.4036 0 12.5C0 5.59644 5.59644 0 12.5 0C19.4036 0 25 5.59644 25 12.5ZM24 12.5C24 18.8513 18.8513 24 12.5 24C6.14873 24 1 18.8513 1 12.5C1 6.14873 6.14873 1 12.5 1C18.8513 1 24 6.14873 24 12.5Z" fill="#586EE0"/>
</svg>
