<svg width="340" height="120" viewBox="0 0 340 120" fill="none" xmlns="http://www.w3.org/2000/svg">
<line x1="1.5" y1="120" x2="1.5" stroke="#F5F6FD"/>
<line x1="19.5" y1="120" x2="19.5" stroke="#F5F6FD"/>
<line x1="37.5" y1="120" x2="37.5" stroke="#F5F6FD"/>
<line x1="55.5" y1="120" x2="55.5" stroke="#F5F6FD"/>
<line x1="73.5" y1="120" x2="73.5" stroke="#F5F6FD"/>
<line x1="91.5" y1="120" x2="91.5" stroke="#F5F6FD"/>
<line x1="109.5" y1="120" x2="109.5" stroke="#F5F6FD"/>
<line x1="127.5" y1="120" x2="127.5" stroke="#F5F6FD"/>
<line x1="145.5" y1="120" x2="145.5" y2="5.89506e-07" stroke="#F5F6FD"/>
<line x1="163.5" y1="120" x2="163.5" stroke="#F5F6FD"/>
<line x1="181.5" y1="120" x2="181.5" stroke="#F5F6FD"/>
<line x1="199.5" y1="120" x2="199.5" stroke="#F5F6FD"/>
<line x1="217.5" y1="120" x2="217.5" stroke="#F5F6FD"/>
<line x1="235.5" y1="120" x2="235.5" stroke="#F5F6FD"/>
<line x1="253.5" y1="120" x2="253.5" stroke="#F5F6FD"/>
<line x1="271.5" y1="120" x2="271.5" stroke="#F5F6FD"/>
<line x1="289.5" y1="120" x2="289.5" stroke="#F5F6FD"/>
<line x1="307.5" y1="120" x2="307.5" stroke="#F5F6FD"/>
<line x1="325.5" y1="120" x2="325.5" stroke="#F5F6FD"/>
<path d="M18.9952 98.1426L1.49999 120H320C323.314 120 326 117.314 326 114V32.5L308.187 66.2006C307.857 66.8243 307.003 66.9197 306.543 66.3841L290.121 47.224C289.773 46.8187 289.169 46.7577 288.747 47.0854L271.997 60.1131C271.693 60.3495 271.281 60.3904 270.936 60.2182L253.947 51.7236C253.666 51.5828 253.334 51.5828 253.053 51.7236L236.246 60.1268C235.814 60.3429 235.289 60.219 234.999 59.8323L218.392 37.6898C217.966 37.1216 217.1 37.1663 216.735 37.7753L200.265 65.2247C199.9 65.8337 199.034 65.8784 198.608 65.3102L182.192 43.4224C181.827 42.9356 181.115 42.885 180.685 43.3153L164.01 59.9903C163.705 60.2947 163.24 60.3702 162.855 60.1777L146.352 51.9259C145.875 51.6874 145.295 51.8652 145.033 52.3301L127.787 82.9903C127.61 83.3051 127.276 83.5 126.915 83.5H91.8433C91.6208 83.5 91.4047 83.5742 91.2291 83.7109L73.9481 97.1632C73.6702 97.3795 73.299 97.4337 72.9708 97.3059L56.0701 90.7221C55.7202 90.5858 55.3234 90.657 55.0427 90.9065L38.0057 106.05C37.7002 106.322 37.2603 106.38 36.8946 106.198L20.2227 97.8729C19.8011 97.6623 19.2897 97.7747 18.9952 98.1426Z" fill="url(#paint0_linear_559_24385)" fill-opacity="0.2"/>
<path d="M18.9952 98.1426L1.49999 120H320C323.314 120 326 117.314 326 114V32.5L308.187 66.2006C307.857 66.8243 307.003 66.9197 306.543 66.3841L290.121 47.224C289.773 46.8187 289.169 46.7577 288.747 47.0854L271.997 60.1131C271.693 60.3495 271.281 60.3904 270.936 60.2182L253.947 51.7236C253.666 51.5828 253.334 51.5828 253.053 51.7236L236.246 60.1268C235.814 60.3429 235.289 60.219 234.999 59.8323L218.392 37.6898C217.966 37.1216 217.1 37.1663 216.735 37.7753L200.265 65.2247C199.9 65.8337 199.034 65.8784 198.608 65.3102L182.192 43.4224C181.827 42.9356 181.115 42.885 180.685 43.3153L164.01 59.9903C163.705 60.2947 163.24 60.3702 162.855 60.1777L146.352 51.9259C145.875 51.6874 145.295 51.8652 145.033 52.3301L127.787 82.9903C127.61 83.3051 127.276 83.5 126.915 83.5H91.8433C91.6208 83.5 91.4047 83.5742 91.2291 83.7109L73.9481 97.1632C73.6702 97.3795 73.299 97.4337 72.9708 97.3059L56.0701 90.7221C55.7202 90.5858 55.3234 90.657 55.0427 90.9065L38.0057 106.05C37.7002 106.322 37.2603 106.38 36.8946 106.198L20.2227 97.8729C19.8011 97.6623 19.2897 97.7747 18.9952 98.1426Z" fill="url(#paint1_linear_559_24385)"/>
<path d="M1.49999 119.5L18.9938 98.1187C19.2898 97.7569 19.7969 97.6485 20.215 97.8575L36.8944 106.197C37.2602 106.38 37.7004 106.322 38.006 106.05L55.043 90.9062C55.3235 90.6569 55.72 90.5856 56.0698 90.7216L72.9713 97.2944C73.2992 97.4219 73.67 97.3678 73.9477 97.1518L91.2247 83.7141C91.403 83.5755 91.6229 83.5012 91.8487 83.5035L110.145 83.688L126.922 83.5063C127.28 83.5024 127.608 83.3081 127.783 82.9966L145.033 52.3301C145.295 51.8652 145.875 51.6874 146.352 51.9259L162.855 60.1777C163.24 60.3702 163.705 60.2947 164.01 59.9903L180.668 43.3315C181.104 42.8957 181.827 42.9541 182.187 43.4543L198.598 66.2478C199.022 66.836 199.911 66.7924 200.275 66.1657L216.742 37.8063C217.101 37.1868 217.976 37.1353 218.406 37.7084L234.999 59.8323C235.289 60.219 235.814 60.3429 236.246 60.1268L253.053 51.7236C253.334 51.5828 253.666 51.5828 253.947 51.7236L270.936 60.2182C271.281 60.3904 271.693 60.3495 271.997 60.1131L288.747 47.0854C289.169 46.7577 289.773 46.8187 290.121 47.224L306.532 66.3705C306.994 66.9098 307.856 66.8087 308.18 66.177L325.5 32.5" stroke="url(#paint2_linear_559_24385)" stroke-linecap="round" stroke-linejoin="round"/>
<path d="M163.5 119.5L163.5 0.5" stroke="#586EE0" stroke-linecap="round" stroke-dasharray="8 8"/>
<circle cx="163.5" cy="60.5" r="14.5" fill="url(#paint3_radial_559_24385)"/>
<g filter="url(#filter0_d_559_24385)">
<circle cx="163.5" cy="60.5" r="4.5" fill="white"/>
<circle cx="163.5" cy="60.5" r="4.25" stroke="#EBEEFB" stroke-width="0.5" stroke-linecap="round" stroke-linejoin="round"/>
</g>
<defs>
<filter id="filter0_d_559_24385" x="153" y="52" width="21" height="21" filterUnits="userSpaceOnUse" color-interpolation-filters="sRGB">
<feFlood flood-opacity="0" result="BackgroundImageFix"/>
<feColorMatrix in="SourceAlpha" type="matrix" values="0 0 0 0 0 0 0 0 0 0 0 0 0 0 0 0 0 0 127 0" result="hardAlpha"/>
<feOffset dy="2"/>
<feGaussianBlur stdDeviation="3"/>
<feComposite in2="hardAlpha" operator="out"/>
<feColorMatrix type="matrix" values="0 0 0 0 0.0980392 0 0 0 0 0.0980392 0 0 0 0 0.0980392 0 0 0 0.25 0"/>
<feBlend mode="multiply" in2="BackgroundImageFix" result="effect1_dropShadow_559_24385"/>
<feBlend mode="normal" in="SourceGraphic" in2="effect1_dropShadow_559_24385" result="shape"/>
</filter>
<linearGradient id="paint0_linear_559_24385" x1="1.49999" y1="76.25" x2="312.356" y2="11.1243" gradientUnits="userSpaceOnUse">
<stop stop-color="#586EE0"/>
<stop offset="1" stop-color="#E040FB"/>
</linearGradient>
<linearGradient id="paint1_linear_559_24385" x1="161" y1="14.5" x2="161" y2="120" gradientUnits="userSpaceOnUse">
<stop stop-color="#FAFAFC" stop-opacity="0"/>
<stop offset="1" stop-color="#FAFAFC"/>
</linearGradient>
<linearGradient id="paint2_linear_559_24385" x1="1.49999" y1="76" x2="311.767" y2="10.7248" gradientUnits="userSpaceOnUse">
<stop stop-color="#586EE0"/>
<stop offset="1" stop-color="#E040FB"/>
</linearGradient>
<radialGradient id="paint3_radial_559_24385" cx="0" cy="0" r="1" gradientUnits="userSpaceOnUse" gradientTransform="translate(163.5 60.5) rotate(90) scale(14.5)">
<stop stop-color="#586EE0" stop-opacity="0.56"/>
<stop offset="0.921875" stop-color="#586EE0" stop-opacity="0"/>
</radialGradient>
</defs>
</svg>
