<svg width="406" height="192" viewBox="0 0 406 192" fill="none" xmlns="http://www.w3.org/2000/svg">
<g clip-path="url(#clip0)">
<path d="M400 0H6C2.68629 0 0 2.68629 0 6V186C0 189.314 2.68629 192 6 192H400C403.314 192 406 189.314 406 186V6C406 2.68629 403.314 0 400 0Z" fill="url(#paint0_linear)"/>
<g filter="url(#filter0_f)">
<path d="M406 60H24V192H406V60Z" fill="#C4C4C4"/>
</g>
<g filter="url(#filter1_i)">
<path d="M24 31C24 27.134 27.1258 24 30.9817 24H406V193H24V31Z" fill="#DEE1E6"/>
</g>
<path d="M407.25 24V23.75H407H31C26.9959 23.75 23.75 26.9959 23.75 31V193V193.25H24H407H407.25V193V24Z" stroke="#9A9A9A" stroke-width="0.5"/>
<path d="M406 67H24V104H406V67Z" fill="white"/>
<path d="M406 105H24V161H406V105Z" fill="white"/>
<path fill-rule="evenodd" clip-rule="evenodd" d="M104 40C104 35.5817 107.582 32 112 32H339C343.418 32 347 35.5817 347 40V60.5C347 64.0899 349.91 67 353.5 67H347H346H105H104H97.5C101.09 67 104 64.0899 104 60.5V40ZM97.5 67H97V66.9811C97.165 66.9936 97.3318 67 97.5 67ZM353.5 67C353.668 67 353.835 66.9936 354 66.9811V67H353.5Z" fill="white"/>
<path d="M406 76H168V94H406V76Z" fill="#B4D8FD"/>
<path d="M143.057 54V47.7715H143.109L147.492 54H148.676V45.5449H147.398V51.7793H147.352L142.969 45.5449H141.779V54H143.057Z" fill="#545465"/>
<path d="M153.266 48.7441C154.151 48.7441 154.748 49.4062 154.778 50.3496H151.696C151.76 49.418 152.381 48.7441 153.266 48.7441ZM154.772 52.1895C154.602 52.7285 154.069 53.0918 153.348 53.0918C152.334 53.0918 151.69 52.3828 151.69 51.3105V51.2344H156.043V50.8008C156.043 48.9316 154.977 47.7246 153.266 47.7246C151.526 47.7246 150.413 49.0137 150.413 50.9473C150.413 52.8926 151.508 54.1172 153.319 54.1172C154.731 54.1172 155.797 53.3145 155.973 52.1895H154.772Z" fill="#545465"/>
<path d="M160.206 48.7441C161.091 48.7441 161.688 49.4062 161.718 50.3496H158.636C158.7 49.418 159.321 48.7441 160.206 48.7441ZM161.712 52.1895C161.542 52.7285 161.009 53.0918 160.288 53.0918C159.274 53.0918 158.63 52.3828 158.63 51.3105V51.2344H162.983V50.8008C162.983 48.9316 161.917 47.7246 160.206 47.7246C158.466 47.7246 157.352 49.0137 157.352 50.9473C157.352 52.8926 158.448 54.1172 160.259 54.1172C161.671 54.1172 162.737 53.3145 162.913 52.1895H161.712Z" fill="#545465"/>
<path d="M167.849 54.1055C169.413 54.1055 170.421 52.875 170.421 50.918C170.421 48.9668 169.407 47.7363 167.855 47.7363C166.982 47.7363 166.279 48.1699 165.909 48.8848H165.88V45.5449H164.614V54H165.845V52.9512H165.868C166.249 53.666 166.946 54.1055 167.849 54.1055ZM167.509 48.8027C168.505 48.8027 169.12 49.623 169.12 50.918C169.12 52.2246 168.505 53.0332 167.509 53.0332C166.548 53.0332 165.874 52.2012 165.874 50.918C165.874 49.6465 166.548 48.8027 167.509 48.8027Z" fill="#545465"/>
<path d="M171.9 49.582C171.9 50.4434 172.463 51.0234 173.576 51.293L174.677 51.5625C175.322 51.7266 175.556 51.9434 175.556 52.3359C175.556 52.834 175.088 53.1504 174.326 53.1504C173.552 53.1504 173.095 52.8223 172.996 52.2305H171.742C171.841 53.3613 172.808 54.1172 174.267 54.1172C175.779 54.1172 176.828 53.3438 176.828 52.2188C176.828 51.3105 176.359 50.8418 175.117 50.543L174.08 50.3027C173.441 50.1445 173.136 49.8867 173.136 49.5059C173.136 49.0195 173.593 48.6855 174.279 48.6855C174.988 48.6855 175.439 49.0312 175.498 49.5879H176.687C176.646 48.4922 175.685 47.7246 174.314 47.7246C172.873 47.7246 171.9 48.4805 171.9 49.582Z" fill="#545465"/>
<path d="M188.885 50.4844V49.623H185.405V50.6836H187.59V50.8301C187.573 52.1133 186.623 52.9922 185.252 52.9922C183.641 52.9922 182.639 51.7441 182.639 49.7227C182.639 47.7363 183.612 46.5527 185.229 46.5527C186.33 46.5527 187.157 47.1562 187.473 48.2051H188.821C188.528 46.5176 187.104 45.4043 185.223 45.4043C182.815 45.4043 181.297 47.0684 181.297 49.7344C181.297 52.4473 182.821 54.1406 185.241 54.1406C187.532 54.1406 188.885 52.7754 188.885 50.4844Z" fill="#545465"/>
<path d="M192.749 53.1035C192.069 53.1035 191.624 52.752 191.624 52.2129C191.624 51.6855 192.052 51.3516 192.807 51.2988L194.325 51.2051V51.6914C194.325 52.4941 193.634 53.1035 192.749 53.1035ZM192.397 54.1055C193.206 54.1055 193.985 53.6719 194.343 52.9863H194.372V54H195.585V49.752C195.585 48.5156 194.63 47.7246 193.136 47.7246C191.612 47.7246 190.663 48.5449 190.593 49.6582H191.788C191.899 49.1074 192.356 48.7559 193.089 48.7559C193.862 48.7559 194.325 49.166 194.325 49.8516V50.3262L192.638 50.4258C191.173 50.5078 190.346 51.1699 190.346 52.248C190.346 53.3555 191.19 54.1055 192.397 54.1055Z" fill="#545465"/>
<path d="M197.415 54H198.681V50.1914C198.681 49.4004 199.214 48.8145 199.964 48.8145C200.679 48.8145 201.13 49.2656 201.13 49.9746V54H202.372V50.1504C202.372 49.3711 202.894 48.8145 203.644 48.8145C204.394 48.8145 204.821 49.2715 204.821 50.0684V54H206.093V49.7637C206.093 48.5391 205.296 47.7305 204.077 47.7305C203.198 47.7305 202.472 48.1875 202.155 48.9375H202.126C201.88 48.1699 201.259 47.7305 200.404 47.7305C199.571 47.7305 198.927 48.1875 198.652 48.873H198.622V47.8359H197.415V54Z" fill="#545465"/>
<path d="M207.959 54H209.224V47.8359H207.959V54ZM208.591 46.9336C209.002 46.9336 209.33 46.6113 209.33 46.2129C209.33 45.8086 209.002 45.4863 208.591 45.4863C208.187 45.4863 207.859 45.8086 207.859 46.2129C207.859 46.6113 208.187 46.9336 208.591 46.9336Z" fill="#545465"/>
<path d="M211.119 54H212.385V50.4082C212.385 49.4531 212.959 48.8203 213.85 48.8203C214.729 48.8203 215.162 49.3301 215.162 50.2559V54H216.434V50.0098C216.434 48.5977 215.654 47.7305 214.295 47.7305C213.346 47.7305 212.689 48.1641 212.355 48.8672H212.326V47.8359H211.119V54Z" fill="#545465"/>
<path d="M220.883 52.9746C219.911 52.9746 219.278 52.1895 219.278 50.9004C219.278 49.6172 219.911 48.8027 220.883 48.8027C221.873 48.8027 222.524 49.6348 222.524 50.9004C222.524 52.1719 221.873 52.9746 220.883 52.9746ZM220.895 56.3203C222.653 56.3203 223.789 55.3594 223.789 53.8887V47.8359H222.559V48.8906H222.536C222.161 48.1758 221.446 47.7363 220.573 47.7363C218.991 47.7363 217.983 48.9551 217.983 50.8945C217.983 52.8164 218.996 54.0234 220.543 54.0234C221.422 54.0234 222.149 53.584 222.495 52.916H222.518V53.9297C222.518 54.7734 221.932 55.3359 220.942 55.3359C220.221 55.3359 219.659 54.9961 219.477 54.4805H218.205C218.364 55.5469 219.442 56.3203 220.895 56.3203Z" fill="#545465"/>
<path d="M232.577 51.1406V49.998H228.734V51.1406H232.577Z" fill="#545465"/>
<path d="M241.336 54V50.5371L244.318 45.5449H242.865L240.709 49.2773H240.668L238.512 45.5449H237.047L240.023 50.5371V54H241.336Z" fill="#545465"/>
<path d="M256.956 47.8359H255.69V51.4277C255.69 52.3887 255.139 53.0215 254.225 53.0215C253.352 53.0215 252.907 52.5176 252.907 51.5801V47.8359H251.641V51.8262C251.641 53.2383 252.462 54.1113 253.804 54.1113C254.747 54.1113 255.374 53.6953 255.714 52.957H255.743V54H256.956V47.8359Z" fill="#545465"/>
<path d="M261.271 54V46.6758H263.855V45.5449H257.368V46.6758H259.958V54H261.271Z" fill="#545465"/>
<path d="M269.535 47.8359H268.269V51.4277C268.269 52.3887 267.718 53.0215 266.804 53.0215C265.931 53.0215 265.486 52.5176 265.486 51.5801V47.8359H264.22V51.8262C264.22 53.2383 265.041 54.1113 266.382 54.1113C267.326 54.1113 267.953 53.6953 268.293 52.957H268.322V54H269.535V47.8359Z" fill="#545465"/>
<path d="M274.67 54.1055C276.234 54.1055 277.242 52.875 277.242 50.918C277.242 48.9668 276.229 47.7363 274.676 47.7363C273.803 47.7363 273.1 48.1699 272.73 48.8848H272.701V45.5449H271.436V54H272.666V52.9512H272.689C273.07 53.666 273.768 54.1055 274.67 54.1055ZM274.33 48.8027C275.326 48.8027 275.941 49.623 275.941 50.918C275.941 52.2246 275.326 53.0332 274.33 53.0332C273.369 53.0332 272.695 52.2012 272.695 50.918C272.695 49.6465 273.369 48.8027 274.33 48.8027Z" fill="#545465"/>
<path d="M281.411 48.7441C282.295 48.7441 282.893 49.4062 282.922 50.3496H279.84C279.905 49.418 280.526 48.7441 281.411 48.7441ZM282.916 52.1895C282.746 52.7285 282.213 53.0918 281.493 53.0918C280.479 53.0918 279.834 52.3828 279.834 51.3105V51.2344H284.188V50.8008C284.188 48.9316 283.121 47.7246 281.411 47.7246C279.67 47.7246 278.557 49.0137 278.557 50.9473C278.557 52.8926 279.653 54.1172 281.463 54.1172C282.875 54.1172 283.942 53.3145 284.118 52.1895H282.916Z" fill="#545465"/>
<path d="M169.786 90H171.263V85.8438C171.263 84.709 171.933 83.957 173.026 83.957C174.065 83.957 174.599 84.5928 174.599 85.6523V90H176.082V85.3652C176.082 83.7383 175.139 82.6855 173.56 82.6855C172.466 82.6855 171.68 83.1709 171.283 84.0117H171.249V80.1357H169.786V90Z" fill="#222224"/>
<path d="M178.541 81.1064V82.8086H177.496V83.9775H178.541V88.1064C178.541 89.4941 179.109 90.0479 180.565 90.0479C180.893 90.0479 181.221 90.0205 181.385 89.9795V88.8105C181.289 88.8311 181.05 88.8447 180.9 88.8447C180.298 88.8447 180.025 88.5645 180.025 87.9424V83.9775H181.392V82.8086H180.025V81.1064H178.541Z" fill="#222224"/>
<path d="M183.639 81.1064V82.8086H182.594V83.9775H183.639V88.1064C183.639 89.4941 184.207 90.0479 185.663 90.0479C185.991 90.0479 186.319 90.0205 186.483 89.9795V88.8105C186.388 88.8311 186.148 88.8447 185.998 88.8447C185.396 88.8447 185.123 88.5645 185.123 87.9424V83.9775H186.49V82.8086H185.123V81.1064H183.639Z" fill="#222224"/>
<path d="M192.053 82.6924C191.014 82.6924 190.187 83.2188 189.763 84.0459H189.736V82.8086H188.307V92.3789H189.783V88.8174H189.818C190.228 89.6172 191.048 90.123 192.08 90.123C193.885 90.123 195.081 88.6807 195.081 86.4043C195.081 84.1279 193.878 82.6924 192.053 82.6924ZM191.663 88.8721C190.529 88.8721 189.777 87.9014 189.777 86.4043C189.777 84.9209 190.535 83.9365 191.663 83.9365C192.832 83.9365 193.564 84.9004 193.564 86.4043C193.564 87.915 192.832 88.8721 191.663 88.8721Z" fill="#222224"/>
<path d="M196.693 84.8457C196.693 85.8506 197.349 86.5273 198.648 86.8418L199.933 87.1562C200.685 87.3477 200.959 87.6006 200.959 88.0586C200.959 88.6396 200.412 89.0088 199.523 89.0088C198.621 89.0088 198.088 88.626 197.971 87.9355H196.508C196.625 89.2549 197.753 90.1367 199.455 90.1367C201.218 90.1367 202.442 89.2344 202.442 87.9219C202.442 86.8623 201.895 86.3154 200.446 85.9668L199.236 85.6865C198.491 85.502 198.135 85.2012 198.135 84.7568C198.135 84.1895 198.669 83.7998 199.468 83.7998C200.296 83.7998 200.822 84.2031 200.89 84.8525H202.278C202.23 83.5742 201.109 82.6787 199.509 82.6787C197.828 82.6787 196.693 83.5605 196.693 84.8457Z" fill="#222224"/>
<path d="M205.298 90.0752C205.797 90.0752 206.193 89.6787 206.193 89.1797C206.193 88.6807 205.797 88.2842 205.298 88.2842C204.799 88.2842 204.402 88.6807 204.402 89.1797C204.402 89.6787 204.799 90.0752 205.298 90.0752ZM205.298 85.0918C205.797 85.0918 206.193 84.7021 206.193 84.1963C206.193 83.6973 205.797 83.3008 205.298 83.3008C204.799 83.3008 204.402 83.6973 204.402 84.1963C204.402 84.7021 204.799 85.0918 205.298 85.0918Z" fill="#222224"/>
<path d="M209.049 92.1055L212.549 80.1357H211.237L207.737 92.1055H209.049Z" fill="#222224"/>
<path d="M214.462 92.1055L217.962 80.1357H216.649L213.149 92.1055H214.462Z" fill="#222224"/>
<path d="M228.822 82.8086H227.36L226.047 88.4688H226.013L224.509 82.8086H223.087L221.59 88.4688H221.563L220.25 82.8086H218.774L220.749 90H222.274L223.771 84.6133H223.805L225.316 90H226.854L228.822 82.8086Z" fill="#222224"/>
<path d="M239.813 82.8086H238.35L237.038 88.4688H237.004L235.5 82.8086H234.078L232.581 88.4688H232.553L231.241 82.8086H229.764L231.74 90H233.264L234.761 84.6133H234.796L236.306 90H237.844L239.813 82.8086Z" fill="#222224"/>
<path d="M250.804 82.8086H249.341L248.028 88.4688H247.994L246.49 82.8086H245.068L243.571 88.4688H243.544L242.231 82.8086H240.755L242.73 90H244.255L245.752 84.6133H245.786L247.297 90H248.835L250.804 82.8086Z" fill="#222224"/>
<path d="M252.593 90.0752C253.092 90.0752 253.489 89.6787 253.489 89.1797C253.489 88.6807 253.092 88.2842 252.593 88.2842C252.094 88.2842 251.698 88.6807 251.698 89.1797C251.698 89.6787 252.094 90.0752 252.593 90.0752Z" fill="#222224"/>
<path d="M255.476 92.6797C256.973 92.6797 257.678 92.1191 258.293 90.376L260.993 82.8086H259.434L257.609 88.6602H257.589L255.763 82.8086H254.164L256.762 90.0068C256.762 90.0137 256.632 90.4375 256.632 90.4512C256.406 91.1895 256.044 91.4766 255.353 91.4766C255.23 91.4766 254.984 91.4766 254.875 91.4492V92.6455C254.984 92.666 255.36 92.6797 255.476 92.6797Z" fill="#222224"/>
<path d="M265.346 90.1367C267.404 90.1367 268.757 88.7217 268.757 86.4043C268.757 84.0938 267.397 82.6787 265.346 82.6787C263.295 82.6787 261.935 84.0938 261.935 86.4043C261.935 88.7217 263.288 90.1367 265.346 90.1367ZM265.346 88.9199C264.191 88.9199 263.439 88.0039 263.439 86.4043C263.439 84.8115 264.191 83.8955 265.346 83.8955C266.501 83.8955 267.253 84.8115 267.253 86.4043C267.253 88.0039 266.508 88.9199 265.346 88.9199Z" fill="#222224"/>
<path d="M276.665 82.8086H275.188V86.999C275.188 88.1201 274.546 88.8584 273.479 88.8584C272.461 88.8584 271.941 88.2705 271.941 87.1768V82.8086H270.464V87.4639C270.464 89.1113 271.421 90.1299 272.987 90.1299C274.088 90.1299 274.819 89.6445 275.215 88.7832H275.25V90H276.665V82.8086Z" fill="#222224"/>
<path d="M279.158 81.1064V82.8086H278.112V83.9775H279.158V88.1064C279.158 89.4941 279.726 90.0479 281.182 90.0479C281.51 90.0479 281.838 90.0205 282.002 89.9795V88.8105C281.906 88.8311 281.667 88.8447 281.517 88.8447C280.915 88.8447 280.642 88.5645 280.642 87.9424V83.9775H282.009V82.8086H280.642V81.1064H279.158Z" fill="#222224"/>
<path d="M289.992 82.8086H288.515V86.999C288.515 88.1201 287.872 88.8584 286.806 88.8584C285.787 88.8584 285.268 88.2705 285.268 87.1768V82.8086H283.791V87.4639C283.791 89.1113 284.748 90.1299 286.314 90.1299C287.414 90.1299 288.146 89.6445 288.542 88.7832H288.577V90H289.992V82.8086Z" fill="#222224"/>
<path d="M295.883 90.123C297.708 90.123 298.884 88.6875 298.884 86.4043C298.884 84.1279 297.701 82.6924 295.889 82.6924C294.871 82.6924 294.051 83.1982 293.62 84.0322H293.586V80.1357H292.109V90H293.545V88.7764H293.572C294.016 89.6104 294.83 90.123 295.883 90.123ZM295.486 83.9365C296.648 83.9365 297.366 84.8936 297.366 86.4043C297.366 87.9287 296.648 88.8721 295.486 88.8721C294.365 88.8721 293.579 87.9014 293.579 86.4043C293.579 84.9209 294.365 83.9365 295.486 83.9365Z" fill="#222224"/>
<path d="M303.647 83.8682C304.679 83.8682 305.376 84.6406 305.41 85.7412H301.815C301.89 84.6543 302.614 83.8682 303.647 83.8682ZM305.404 87.8877C305.205 88.5166 304.583 88.9404 303.742 88.9404C302.56 88.9404 301.808 88.1133 301.808 86.8623V86.7734H306.887V86.2676C306.887 84.0869 305.643 82.6787 303.647 82.6787C301.616 82.6787 300.318 84.1826 300.318 86.4385C300.318 88.708 301.596 90.1367 303.708 90.1367C305.356 90.1367 306.6 89.2002 306.805 87.8877H305.404Z" fill="#222224"/>
<path d="M309.743 90.0752C310.242 90.0752 310.638 89.6787 310.638 89.1797C310.638 88.6807 310.242 88.2842 309.743 88.2842C309.244 88.2842 308.847 88.6807 308.847 89.1797C308.847 89.6787 309.244 90.0752 309.743 90.0752Z" fill="#222224"/>
<path d="M318.703 85.2832C318.573 83.8682 317.445 82.6787 315.593 82.6787C313.549 82.6787 312.209 84.1211 312.209 86.4043C312.209 88.7285 313.549 90.1367 315.606 90.1367C317.336 90.1367 318.56 89.0977 318.717 87.5664H317.295C317.124 88.4004 316.529 88.8994 315.62 88.8994C314.472 88.8994 313.713 87.9834 313.713 86.4043C313.713 84.8594 314.465 83.9092 315.606 83.9092C316.57 83.9092 317.145 84.5176 317.295 85.2832H318.703Z" fill="#222224"/>
<path d="M323.453 90.1367C325.51 90.1367 326.864 88.7217 326.864 86.4043C326.864 84.0938 325.503 82.6787 323.453 82.6787C321.402 82.6787 320.041 84.0938 320.041 86.4043C320.041 88.7217 321.395 90.1367 323.453 90.1367ZM323.453 88.9199C322.297 88.9199 321.545 88.0039 321.545 86.4043C321.545 84.8115 322.297 83.8955 323.453 83.8955C324.608 83.8955 325.36 84.8115 325.36 86.4043C325.36 88.0039 324.615 88.9199 323.453 88.9199Z" fill="#222224"/>
<path d="M328.605 90H330.082V85.5566C330.082 84.6338 330.704 83.9502 331.579 83.9502C332.413 83.9502 332.939 84.4766 332.939 85.3037V90H334.388V85.5088C334.388 84.5996 334.997 83.9502 335.872 83.9502C336.747 83.9502 337.246 84.4834 337.246 85.4131V90H338.729V85.0576C338.729 83.6289 337.8 82.6855 336.378 82.6855C335.352 82.6855 334.505 83.2188 334.136 84.0938H334.101C333.814 83.1982 333.09 82.6855 332.092 82.6855C331.121 82.6855 330.369 83.2188 330.048 84.0186H330.013V82.8086H328.605V90Z" fill="#222224"/>
<path d="M341.339 92.1055L344.839 80.1357H343.527L340.027 92.1055H341.339Z" fill="#222224"/>
<path d="M352.337 82.8086H350.86V86.999C350.86 88.1201 350.217 88.8584 349.151 88.8584C348.132 88.8584 347.613 88.2705 347.613 87.1768V82.8086H346.136V87.4639C346.136 89.1113 347.093 90.1299 348.659 90.1299C349.759 90.1299 350.491 89.6445 350.887 88.7832H350.921V90H352.337V82.8086Z" fill="#222224"/>
<path d="M354.27 84.8457C354.27 85.8506 354.926 86.5273 356.225 86.8418L357.51 87.1562C358.262 87.3477 358.535 87.6006 358.535 88.0586C358.535 88.6396 357.988 89.0088 357.1 89.0088C356.197 89.0088 355.664 88.626 355.548 87.9355H354.085C354.201 89.2549 355.329 90.1367 357.031 90.1367C358.795 90.1367 360.019 89.2344 360.019 87.9219C360.019 86.8623 359.472 86.3154 358.022 85.9668L356.812 85.6865C356.067 85.502 355.712 85.2012 355.712 84.7568C355.712 84.1895 356.245 83.7998 357.045 83.7998C357.872 83.7998 358.398 84.2031 358.467 84.8525H359.854C359.807 83.5742 358.686 82.6787 357.086 82.6787C355.404 82.6787 354.27 83.5605 354.27 84.8457Z" fill="#222224"/>
<path d="M364.775 83.8682C365.807 83.8682 366.504 84.6406 366.538 85.7412H362.943C363.018 84.6543 363.743 83.8682 364.775 83.8682ZM366.532 87.8877C366.333 88.5166 365.711 88.9404 364.871 88.9404C363.688 88.9404 362.936 88.1133 362.936 86.8623V86.7734H368.015V86.2676C368.015 84.0869 366.771 82.6787 364.775 82.6787C362.745 82.6787 361.446 84.1826 361.446 86.4385C361.446 88.708 362.724 90.1367 364.836 90.1367C366.484 90.1367 367.728 89.2002 367.933 87.8877H366.532Z" fill="#222224"/>
<path d="M369.763 90H371.24V85.6934C371.24 84.6748 371.828 84.0391 372.778 84.0391C373.065 84.0391 373.325 84.0732 373.441 84.1211V82.7471C373.332 82.7266 373.147 82.6924 372.935 82.6924C372.088 82.6924 371.445 83.1914 371.206 84.0322H371.172V82.8086H369.763V90Z" fill="#222224"/>
<path d="M375.292 92.1055L378.792 80.1357H377.48L373.98 92.1055H375.292Z" fill="#222224"/>
<path d="M381.819 90V82.7334H381.88L386.994 90H388.375V80.1357H386.884V87.4092H386.83L381.716 80.1357H380.329V90H381.819Z" fill="#222224"/>
<path d="M393.63 83.8682C394.662 83.8682 395.359 84.6406 395.394 85.7412H391.798C391.873 84.6543 392.598 83.8682 393.63 83.8682ZM395.387 87.8877C395.188 88.5166 394.566 88.9404 393.726 88.9404C392.543 88.9404 391.791 88.1133 391.791 86.8623V86.7734H396.87V86.2676C396.87 84.0869 395.626 82.6787 393.63 82.6787C391.6 82.6787 390.301 84.1826 390.301 86.4385C390.301 88.708 391.579 90.1367 393.691 90.1367C395.339 90.1367 396.583 89.2002 396.788 87.8877H395.387Z" fill="#222224"/>
<path d="M401.626 83.8682C402.659 83.8682 403.356 84.6406 403.39 85.7412H399.794C399.87 84.6543 400.594 83.8682 401.626 83.8682ZM403.383 87.8877C403.185 88.5166 402.563 88.9404 401.722 88.9404C400.539 88.9404 399.788 88.1133 399.788 86.8623V86.7734H404.867V86.2676C404.867 84.0869 403.622 82.6787 401.626 82.6787C399.596 82.6787 398.297 84.1826 398.297 86.4385C398.297 88.708 399.576 90.1367 401.688 90.1367C403.335 90.1367 404.579 89.2002 404.785 87.8877H403.383Z" fill="#222224"/>
<path d="M386.189 54V46.6758H388.773V45.5449H382.287V46.6758H384.877V54H386.189Z" fill="#545465"/>
<path d="M397.465 47.8359H396.211L395.086 52.6875H395.057L393.768 47.8359H392.549L391.266 52.6875H391.243L390.118 47.8359H388.852L390.545 54H391.852L393.135 49.3828H393.164L394.459 54H395.778L397.465 47.8359Z" fill="#545465"/>
<path d="M398.88 54H400.145V47.8359H398.88V54ZM399.513 46.9336C399.923 46.9336 400.251 46.6113 400.251 46.2129C400.251 45.8086 399.923 45.4863 399.513 45.4863C399.108 45.4863 398.78 45.8086 398.78 46.2129C398.78 46.6113 399.108 46.9336 399.513 46.9336Z" fill="#545465"/>
<path d="M402.409 46.377V47.8359H401.513V48.8379H402.409V52.377C402.409 53.5664 402.896 54.041 404.144 54.041C404.425 54.041 404.706 54.0176 404.847 53.9824V52.9805C404.765 52.998 404.56 53.0098 404.431 53.0098C403.915 53.0098 403.681 52.7695 403.681 52.2363V48.8379H404.853V47.8359H403.681V46.377H402.409Z" fill="#545465"/>
<path d="M69.5 46C69.5 42.9624 67.0376 40.5 64 40.5C60.9624 40.5 58.5 42.9624 58.5 46C58.5 49.0376 60.9624 51.5 64 51.5C67.0376 51.5 69.5 49.0376 69.5 46Z" fill="#FDBC40" stroke="#DFA135"/>
<path d="M90.5 46C90.5 42.9624 88.0376 40.5 85 40.5C81.9624 40.5 79.5 42.9624 79.5 46C79.5 49.0376 81.9624 51.5 85 51.5C88.0376 51.5 90.5 49.0376 90.5 46Z" fill="#3FC246" stroke="#35AB36"/>
<path d="M48.5 46C48.5 42.9624 46.0376 40.5 43 40.5C39.9624 40.5 37.5 42.9624 37.5 46C37.5 49.0376 39.9624 51.5 43 51.5C46.0376 51.5 48.5 49.0376 48.5 46Z" fill="#FA5D57" stroke="#DE4A46"/>
<path fill-rule="evenodd" clip-rule="evenodd" d="M45.2929 78.2929C45.6834 77.9024 46.3165 77.9024 46.7071 78.2929C47.0976 78.6834 47.0976 79.3166 46.7071 79.7071L42.4142 84H53C53.5522 84 54 84.4477 54 85C54 85.5523 53.5522 86 53 86H42.4142L46.7071 90.2928C47.0976 90.6833 47.0976 91.3165 46.7071 91.707C46.3165 92.0976 45.6834 92.0976 45.2929 91.707L39.2929 85.7071C38.9024 85.3165 38.9024 84.6834 39.2929 84.2929L45.2929 78.2929Z" fill="#78787F"/>
<path fill-rule="evenodd" clip-rule="evenodd" d="M79.7071 78.2929C79.3166 77.9024 78.6834 77.9024 78.2929 78.2929C77.9024 78.6834 77.9024 79.3166 78.2929 79.7071L82.5858 84H72C71.4477 84 71 84.4477 71 85C71 85.5523 71.4477 86 72 86H82.5857L78.2929 90.2928C77.9024 90.6833 77.9024 91.3165 78.2929 91.707C78.6834 92.0976 79.3166 92.0976 79.7071 91.707L85.7071 85.7071C86.0976 85.3165 86.0976 84.6834 85.7071 84.2929L79.7071 78.2929Z" fill="#78787F"/>
<path d="M118 86.871V85.5C118 82.3327 115.481 79.7647 112.375 79.7647C109.269 79.7647 106.75 82.3327 106.75 85.5C106.75 88.6673 109.269 91.2353 112.375 91.2353C112.582 91.2353 112.75 91.4065 112.75 91.6176C112.75 91.8288 112.582 92 112.375 92C108.854 92 106 89.0896 106 85.5C106 81.9104 108.854 79 112.375 79C115.896 79 118.75 81.9104 118.75 85.5V86.871L120.36 85.2296C120.506 85.0803 120.744 85.0803 120.89 85.2296C121.037 85.379 121.037 85.621 120.89 85.7704L118.64 88.0645C118.567 88.1391 118.471 88.1765 118.375 88.1765C118.279 88.1765 118.183 88.1391 118.11 88.0645L115.86 85.7704C115.713 85.621 115.713 85.379 115.86 85.2296C116.006 85.0803 116.244 85.0803 116.39 85.2296L118 86.871Z" fill="#78787F" stroke="#78787F"/>
<path d="M131.688 46.7156C131.602 46.3826 131.435 46.0791 131.202 45.8353C130.969 45.5915 130.679 45.416 130.361 45.3263C129.191 44.9939 124.5 44.9939 124.5 44.9939C124.5 44.9939 119.808 44.9939 118.64 45.3224C118.322 45.4124 118.031 45.5885 117.799 45.833C117.566 46.0775 117.399 46.3819 117.314 46.7156C117 47.9405 117 50.4978 117 50.4978C117 50.4978 117 53.055 117.314 54.28C117.399 54.6129 117.567 54.9165 117.799 55.1603C118.032 55.4041 118.322 55.5796 118.64 55.6692C119.809 55.9978 124.5 55.9978 124.5 55.9978C124.5 55.9978 129.192 55.9978 130.36 55.6692C130.678 55.5799 130.968 55.4047 131.201 55.1611C131.434 54.9175 131.602 54.6141 131.688 54.2813C132.001 53.0563 132.001 50.4991 132.001 50.4991C132.001 50.4991 131.996 47.9418 131.688 46.7156Z" fill="#EE3124"/>
<path d="M123 52.8569L126.898 50.5001L123 48.1433V52.8569Z" fill="white"/>
<path d="M147 71H407V99H147C139.268 99 133 92.732 133 85C133 77.268 139.268 71 147 71Z" stroke="#B4D8FD" stroke-width="2"/>
<path fill-rule="evenodd" clip-rule="evenodd" d="M150 84H154.527V83.2637C154.527 82.0135 153.514 81 152.264 81C151.014 81 150 82.0135 150 83.2637V84ZM149 84C148.448 84 148 84.4477 148 85V90C148 90.5523 148.448 91 149 91H155C155.552 91 156 90.5523 156 90V85C156 84.6413 155.811 84.3267 155.527 84.1503V83.2637C155.527 81.4612 154.066 80 152.264 80C150.461 80 149 81.4612 149 83.2637V84Z" fill="#606368"/>
<path d="M122.982 126.809C122.836 126.264 122.551 125.768 122.155 125.369C121.759 124.97 121.267 124.683 120.726 124.536C118.735 123.992 110.756 123.992 110.756 123.992C110.756 123.992 102.776 123.992 100.789 124.53C100.248 124.677 99.7543 124.965 99.3584 125.365C98.9625 125.765 98.678 126.263 98.5334 126.809C98 128.814 98 132.998 98 132.998C98 132.998 98 137.183 98.5334 139.187C98.679 139.732 98.9639 140.229 99.3598 140.628C99.7556 141.027 100.248 141.314 100.789 141.461C102.778 141.998 110.756 141.998 110.756 141.998C110.756 141.998 118.737 141.998 120.724 141.461C121.265 141.315 121.758 141.028 122.154 140.629C122.55 140.231 122.836 139.734 122.982 139.19C123.515 137.185 123.515 133 123.515 133C123.515 133 123.507 128.816 122.982 126.809Z" fill="#EE3124"/>
<path d="M108.205 136.857L114.835 133L108.205 129.143V136.857Z" fill="white"/>
<path d="M135.035 140.374C134.498 139.987 134.116 139.42 133.957 138.774C133.718 137.832 133.611 136.86 133.638 135.887V134.251C133.609 133.263 133.734 132.277 134.008 131.328C134.192 130.675 134.595 130.106 135.148 129.719C135.764 129.356 136.47 129.18 137.183 129.213C138.01 129.213 138.673 129.385 139.172 129.728C139.707 130.123 140.093 130.691 140.266 131.336C140.525 132.285 140.642 133.267 140.613 134.251V135.887C140.64 136.864 140.526 137.839 140.274 138.783C140.108 139.429 139.72 139.996 139.18 140.383C138.675 140.72 137.991 140.889 137.128 140.889C136.237 140.89 135.539 140.719 135.035 140.374ZM137.863 138.609C138.003 138.241 138.074 137.64 138.074 136.808V133.305C138.101 132.706 138.03 132.107 137.863 131.531C137.82 131.368 137.724 131.224 137.59 131.122C137.456 131.021 137.292 130.967 137.124 130.97C136.959 130.969 136.799 131.024 136.668 131.126C136.538 131.227 136.445 131.37 136.404 131.531C136.237 132.107 136.166 132.706 136.194 133.305V136.816C136.194 137.65 136.264 138.251 136.404 138.618C136.446 138.779 136.54 138.922 136.673 139.022C136.805 139.122 136.967 139.174 137.133 139.17C137.299 139.171 137.46 139.116 137.592 139.015C137.724 138.913 137.819 138.771 137.861 138.609H137.863Z" fill="#414042"/>
<path d="M173.787 135.915V136.48C173.779 137.023 173.8 137.566 173.85 138.107C173.865 138.391 173.956 138.665 174.115 138.899C174.193 138.987 174.291 139.055 174.401 139.098C174.51 139.141 174.628 139.158 174.745 139.147C174.903 139.161 175.063 139.127 175.201 139.048C175.34 138.969 175.451 138.849 175.52 138.704C175.66 138.411 175.736 137.917 175.749 137.223L177.92 137.352C177.935 137.486 177.941 137.621 177.939 137.756C177.939 138.799 177.659 139.575 177.099 140.084C176.539 140.594 175.74 140.851 174.701 140.857C173.46 140.857 172.591 140.465 172.092 139.68C171.594 138.896 171.338 137.688 171.324 136.056V134.088C171.324 132.395 171.582 131.159 172.099 130.382C172.615 129.604 173.5 129.218 174.751 129.222C175.615 129.222 176.278 129.381 176.74 129.7C177.231 130.061 177.577 130.586 177.717 131.182C177.932 132.097 178.027 133.037 178 133.978V135.908L173.787 135.915ZM174.106 131.171C173.953 131.404 173.864 131.673 173.85 131.952C173.8 132.5 173.779 133.049 173.787 133.599V134.408H175.629V133.599C175.637 133.049 175.613 132.499 175.556 131.952C175.54 131.669 175.448 131.396 175.291 131.161C175.216 131.08 175.124 131.017 175.021 130.977C174.918 130.937 174.808 130.921 174.699 130.93C174.588 130.921 174.477 130.939 174.375 130.981C174.272 131.022 174.18 131.088 174.106 131.171Z" fill="#414042"/>
<path d="M128.902 135.703L126.037 125.278H128.547L129.551 130.005C129.807 131.169 129.995 132.162 130.116 132.983H130.189C130.275 132.395 130.463 131.407 130.754 130.02L131.804 125.276H134.304L131.403 135.703V140.713H128.902V135.703Z" fill="#414042"/>
<path d="M148.738 129.433V140.713H146.768L146.558 139.333H146.504C145.969 140.376 145.166 140.897 144.095 140.895C143.353 140.895 142.805 140.65 142.452 140.161C142.1 139.671 141.923 138.905 141.923 137.862V129.433H144.443V137.707C144.42 138.074 144.476 138.441 144.607 138.783C144.656 138.885 144.735 138.971 144.832 139.028C144.93 139.085 145.042 139.112 145.155 139.104C145.382 139.1 145.601 139.026 145.785 138.893C145.979 138.766 146.134 138.588 146.233 138.378V129.433H148.738Z" fill="#414042"/>
<path d="M161.652 129.433V140.713H159.682L159.472 139.333H159.418C158.883 140.376 158.08 140.897 157.009 140.895C156.267 140.895 155.719 140.65 155.366 140.161C155.014 139.671 154.837 138.905 154.837 137.862V129.433H157.357V137.707C157.334 138.074 157.39 138.441 157.521 138.783C157.57 138.885 157.649 138.971 157.746 139.028C157.844 139.085 157.957 139.112 158.069 139.104C158.296 139.1 158.516 139.026 158.699 138.893C158.893 138.766 159.048 138.588 159.147 138.378V129.433H161.652Z" fill="#414042"/>
<path d="M155.579 127.319H153.079V140.713H150.616V127.319H148.117V125.279H155.579V127.319Z" fill="#414042"/>
<path d="M169.986 131.235C169.833 130.529 169.587 130.014 169.246 129.69C168.857 129.353 168.354 129.182 167.841 129.211C167.38 129.211 166.929 129.349 166.546 129.607C166.15 129.864 165.829 130.223 165.615 130.646H165.596V124.707H163.171V140.713H165.25L165.506 139.655H165.561C165.757 140.037 166.062 140.351 166.436 140.556C166.832 140.779 167.279 140.892 167.732 140.887C168.127 140.9 168.517 140.795 168.852 140.584C169.187 140.372 169.451 140.065 169.612 139.701C170.014 138.911 170.215 137.676 170.215 135.995V134.211C170.238 133.213 170.161 132.216 169.986 131.235ZM167.676 135.832C167.685 136.477 167.652 137.122 167.575 137.762C167.548 138.117 167.431 138.459 167.237 138.755C167.161 138.85 167.065 138.926 166.956 138.977C166.847 139.028 166.727 139.053 166.607 139.049C166.405 139.051 166.207 139 166.031 138.901C165.853 138.797 165.707 138.644 165.611 138.461V132.064C165.685 131.777 165.837 131.516 166.05 131.311C166.228 131.127 166.47 131.022 166.724 131.017C166.84 131.012 166.956 131.037 167.059 131.09C167.163 131.143 167.252 131.222 167.316 131.319C167.49 131.632 167.59 131.981 167.608 132.34C167.672 133.018 167.699 133.699 167.69 134.38L167.676 135.832Z" fill="#414042"/>
<path d="M71 137H52V139H71V137Z" fill="#606060"/>
<path d="M71 132H52V134H71V132Z" fill="#606060"/>
<path d="M71 127H52V129H71V127Z" fill="#606060"/>
<path d="M307 48H304V51H307V48Z" fill="#5D6063"/>
<path d="M311 48H310V51H311V48Z" fill="#5D6063"/>
<path d="M313 47H312V52H313V47Z" fill="#5D6063"/>
<path d="M304 49.4999L309.25 44.7368V54.263L304 49.4999Z" fill="#5D6063"/>
<path d="M327.061 46.0256C326.865 45.8303 326.549 45.8303 326.354 46.0256C326.158 46.2209 326.158 46.5374 326.354 46.7327L333.631 54.0103C333.826 54.2056 334.143 54.2056 334.338 54.0103C334.534 53.8151 334.534 53.4985 334.338 53.3032L327.061 46.0256Z" fill="#5D6063"/>
<path d="M334.339 46.7328C334.534 46.5375 334.534 46.2209 334.339 46.0257C334.143 45.8304 333.827 45.8304 333.631 46.0257L326.354 53.3033C326.159 53.4985 326.159 53.8151 326.354 54.0104C326.549 54.2057 326.866 54.2057 327.061 54.0104L334.339 46.7328Z" fill="#5D6063"/>
<path d="M363.601 55.8494C369.497 55.8494 372.722 50.9644 372.722 46.7282C372.722 46.5894 372.723 46.4513 372.713 46.3138C373.341 45.86 373.882 45.2981 374.312 44.6544C373.727 44.9137 373.107 45.0837 372.471 45.1588C373.14 44.7582 373.641 44.128 373.881 43.3857C373.251 43.7591 372.563 44.0222 371.845 44.1638C371.362 43.6499 370.722 43.3095 370.026 43.1955C369.33 43.0815 368.616 43.2001 367.993 43.533C367.371 43.8659 366.876 44.3945 366.585 45.0371C366.294 45.6796 366.222 46.4003 366.382 47.0875C365.107 47.0237 363.86 46.6924 362.722 46.1154C361.584 45.5384 360.58 44.7285 359.775 43.7382C359.365 44.4439 359.24 45.2793 359.424 46.0744C359.608 46.8694 360.089 47.5643 360.767 48.0175C360.257 48.0024 359.758 47.8648 359.312 47.6163C359.312 47.6294 359.312 47.6432 359.312 47.6569C359.313 48.3971 359.569 49.1143 360.038 49.6871C360.506 50.2599 361.159 50.6529 361.884 50.7994C361.412 50.9281 360.917 50.947 360.437 50.8544C360.642 51.4914 361.041 52.0484 361.578 52.4476C362.115 52.8468 362.763 53.0681 363.432 53.0807C362.297 53.9728 360.894 54.4571 359.451 54.4557C359.196 54.4552 358.941 54.4397 358.688 54.4094C360.154 55.3502 361.859 55.8492 363.601 55.8469" fill="#1DA1F2"/>
<g filter="url(#filter2_i)">
<path d="M406 161H24V192H400C403.314 192 406 189.314 406 186V161Z" fill="#FAFAFA"/>
</g>
<g filter="url(#filter3_d)">
<path fill-rule="evenodd" clip-rule="evenodd" d="M190 36C183.373 36 178 41.3726 178 48C178 54.6274 183.373 60 190 60H210.515L214 63.4853L217.485 60H238C244.627 60 250 54.6274 250 48C250 41.3726 244.627 36 238 36H190Z" fill="#586EE0"/>
</g>
<path d="M208.023 46.6169C207.975 46.4309 207.909 46.2599 207.825 46.1039C207.741 45.9479 207.633 45.8129 207.501 45.6989C207.369 45.5849 207.213 45.4979 207.033 45.4379C206.859 45.3719 206.655 45.3389 206.421 45.3389C206.079 45.3389 205.782 45.4079 205.53 45.5459C205.284 45.6839 205.083 45.8699 204.927 46.1039C204.771 46.3319 204.654 46.5929 204.576 46.8869C204.504 47.1809 204.468 47.4809 204.468 47.7869C204.468 48.0929 204.504 48.3929 204.576 48.6869C204.654 48.9809 204.771 49.2449 204.927 49.4789C205.083 49.7069 205.284 49.8899 205.53 50.0279C205.782 50.1659 206.079 50.2349 206.421 50.2349C206.673 50.2349 206.895 50.1929 207.087 50.1089C207.279 50.0189 207.444 49.8989 207.582 49.7489C207.72 49.5929 207.828 49.4129 207.906 49.2089C207.984 49.0049 208.035 48.7859 208.059 48.5519H209.157C209.133 48.9359 209.049 49.2869 208.905 49.6049C208.767 49.9229 208.578 50.1989 208.338 50.4329C208.098 50.6609 207.816 50.8379 207.492 50.9639C207.168 51.0899 206.811 51.1529 206.421 51.1529C205.941 51.1529 205.509 51.0659 205.125 50.8919C204.747 50.7119 204.426 50.4689 204.162 50.1629C203.898 49.8569 203.694 49.4999 203.55 49.0919C203.412 48.6839 203.343 48.2489 203.343 47.7869C203.343 47.3309 203.412 46.8989 203.55 46.4909C203.694 46.0829 203.898 45.7259 204.162 45.4199C204.426 45.1139 204.747 44.8709 205.125 44.6909C205.509 44.5109 205.941 44.4209 206.421 44.4209C206.781 44.4209 207.12 44.4719 207.438 44.5739C207.756 44.6699 208.035 44.8139 208.275 45.0059C208.521 45.1919 208.719 45.4199 208.869 45.6899C209.019 45.9599 209.112 46.2689 209.148 46.6169H208.023Z" fill="white"/>
<path d="M212.169 51.1259C211.797 51.1259 211.464 51.0659 211.17 50.9459C210.882 50.8199 210.636 50.6489 210.432 50.4329C210.234 50.2169 210.081 49.9589 209.973 49.6589C209.871 49.3589 209.82 49.0289 209.82 48.6689C209.82 48.3149 209.871 47.9879 209.973 47.6879C210.081 47.3879 210.234 47.1299 210.432 46.9139C210.636 46.6979 210.882 46.5299 211.17 46.4099C211.464 46.2839 211.797 46.2209 212.169 46.2209C212.541 46.2209 212.871 46.2839 213.159 46.4099C213.453 46.5299 213.699 46.6979 213.897 46.9139C214.101 47.1299 214.254 47.3879 214.356 47.6879C214.464 47.9879 214.518 48.3149 214.518 48.6689C214.518 49.0289 214.464 49.3589 214.356 49.6589C214.254 49.9589 214.101 50.2169 213.897 50.4329C213.699 50.6489 213.453 50.8199 213.159 50.9459C212.871 51.0659 212.541 51.1259 212.169 51.1259ZM212.169 50.3159C212.397 50.3159 212.595 50.2679 212.763 50.1719C212.931 50.0759 213.069 49.9499 213.177 49.7939C213.285 49.6379 213.363 49.4639 213.411 49.2719C213.465 49.0739 213.492 48.8729 213.492 48.6689C213.492 48.4709 213.465 48.2729 213.411 48.0749C213.363 47.8769 213.285 47.7029 213.177 47.5529C213.069 47.3969 212.931 47.2709 212.763 47.1749C212.595 47.0789 212.397 47.0309 212.169 47.0309C211.941 47.0309 211.743 47.0789 211.575 47.1749C211.407 47.2709 211.269 47.3969 211.161 47.5529C211.053 47.7029 210.972 47.8769 210.918 48.0749C210.87 48.2729 210.846 48.4709 210.846 48.6689C210.846 48.8729 210.87 49.0739 210.918 49.2719C210.972 49.4639 211.053 49.6379 211.161 49.7939C211.269 49.9499 211.407 50.0759 211.575 50.1719C211.743 50.2679 211.941 50.3159 212.169 50.3159Z" fill="white"/>
<path d="M215.398 46.3469H216.37V46.9769H216.388C216.532 46.7069 216.733 46.5149 216.991 46.4009C217.249 46.2809 217.528 46.2209 217.828 46.2209C218.194 46.2209 218.512 46.2869 218.782 46.4189C219.058 46.5449 219.286 46.7219 219.466 46.9499C219.646 47.1719 219.781 47.4329 219.871 47.7329C219.961 48.0329 220.006 48.3539 220.006 48.6959C220.006 49.0079 219.964 49.3109 219.88 49.6049C219.802 49.8989 219.679 50.1599 219.511 50.3879C219.349 50.6099 219.142 50.7899 218.89 50.9279C218.638 51.0599 218.341 51.1259 217.999 51.1259C217.849 51.1259 217.699 51.1109 217.549 51.0809C217.399 51.0569 217.255 51.0149 217.117 50.9549C216.979 50.8949 216.85 50.8199 216.73 50.7299C216.616 50.6339 216.52 50.5229 216.442 50.3969H216.424V52.7189H215.398V46.3469ZM218.98 48.6779C218.98 48.4679 218.953 48.2639 218.899 48.0659C218.845 47.8679 218.764 47.6939 218.656 47.5439C218.548 47.3879 218.413 47.2649 218.251 47.1749C218.089 47.0789 217.903 47.0309 217.693 47.0309C217.261 47.0309 216.934 47.1809 216.712 47.4809C216.496 47.7809 216.388 48.1799 216.388 48.6779C216.388 48.9119 216.415 49.1309 216.469 49.3349C216.529 49.5329 216.616 49.7039 216.73 49.8479C216.844 49.9919 216.979 50.1059 217.135 50.1899C217.297 50.2739 217.483 50.3159 217.693 50.3159C217.927 50.3159 218.125 50.2679 218.287 50.1719C218.449 50.0759 218.581 49.9529 218.683 49.8029C218.791 49.6469 218.866 49.4729 218.908 49.2809C218.956 49.0829 218.98 48.8819 218.98 48.6779Z" fill="white"/>
<path d="M220.36 46.3469H221.485L222.7 49.8209H222.718L223.897 46.3469H224.968L223.159 51.2519C223.075 51.4619 222.991 51.6629 222.907 51.8549C222.829 52.0469 222.73 52.2149 222.61 52.3589C222.496 52.5089 222.352 52.6259 222.178 52.7099C222.004 52.7999 221.782 52.8449 221.512 52.8449C221.272 52.8449 221.035 52.8269 220.801 52.7909V51.9269C220.885 51.9389 220.966 51.9509 221.044 51.9629C221.122 51.9809 221.203 51.9899 221.287 51.9899C221.407 51.9899 221.506 51.9749 221.584 51.9449C221.662 51.9149 221.725 51.8699 221.773 51.8099C221.827 51.7559 221.872 51.6899 221.908 51.6119C221.944 51.5339 221.977 51.4439 222.007 51.3419L222.124 50.9819L220.36 46.3469Z" fill="white"/>
</g>
<defs>
<filter id="filter0_f" x="0" y="36" width="430" height="180" filterUnits="userSpaceOnUse" color-interpolation-filters="sRGB">
<feFlood flood-opacity="0" result="BackgroundImageFix"/>
<feBlend mode="normal" in="SourceGraphic" in2="BackgroundImageFix" result="shape"/>
<feGaussianBlur stdDeviation="12" result="effect1_foregroundBlur"/>
</filter>
<filter id="filter1_i" x="24" y="24" width="382" height="170" filterUnits="userSpaceOnUse" color-interpolation-filters="sRGB">
<feFlood flood-opacity="0" result="BackgroundImageFix"/>
<feBlend mode="normal" in="SourceGraphic" in2="BackgroundImageFix" result="shape"/>
<feColorMatrix in="SourceAlpha" type="matrix" values="0 0 0 0 0 0 0 0 0 0 0 0 0 0 0 0 0 0 127 0" result="hardAlpha"/>
<feOffset dy="1"/>
<feGaussianBlur stdDeviation="2"/>
<feComposite in2="hardAlpha" operator="arithmetic" k2="-1" k3="1"/>
<feColorMatrix type="matrix" values="0 0 0 0 1 0 0 0 0 1 0 0 0 0 1 0 0 0 0.25 0"/>
<feBlend mode="normal" in2="shape" result="effect1_innerShadow"/>
</filter>
<filter id="filter2_i" x="24" y="161" width="382" height="35" filterUnits="userSpaceOnUse" color-interpolation-filters="sRGB">
<feFlood flood-opacity="0" result="BackgroundImageFix"/>
<feBlend mode="normal" in="SourceGraphic" in2="BackgroundImageFix" result="shape"/>
<feColorMatrix in="SourceAlpha" type="matrix" values="0 0 0 0 0 0 0 0 0 0 0 0 0 0 0 0 0 0 127 0" result="hardAlpha"/>
<feOffset dy="4"/>
<feGaussianBlur stdDeviation="2"/>
<feComposite in2="hardAlpha" operator="arithmetic" k2="-1" k3="1"/>
<feColorMatrix type="matrix" values="0 0 0 0 0 0 0 0 0 0 0 0 0 0 0 0 0 0 0.03 0"/>
<feBlend mode="normal" in2="shape" result="effect1_innerShadow"/>
</filter>
<filter id="filter3_d" x="164" y="26" width="100" height="55.4853" filterUnits="userSpaceOnUse" color-interpolation-filters="sRGB">
<feFlood flood-opacity="0" result="BackgroundImageFix"/>
<feColorMatrix in="SourceAlpha" type="matrix" values="0 0 0 0 0 0 0 0 0 0 0 0 0 0 0 0 0 0 127 0"/>
<feOffset dy="4"/>
<feGaussianBlur stdDeviation="7"/>
<feColorMatrix type="matrix" values="0 0 0 0 0.110162 0 0 0 0 0.0727675 0 0 0 0 0.231441 0 0 0 0.26 0"/>
<feBlend mode="normal" in2="BackgroundImageFix" result="effect1_dropShadow"/>
<feBlend mode="normal" in="SourceGraphic" in2="effect1_dropShadow" result="shape"/>
</filter>
<linearGradient id="paint0_linear" x1="203" y1="0" x2="203" y2="192" gradientUnits="userSpaceOnUse">
<stop stop-color="#FF5F6D"/>
<stop offset="1" stop-color="#FFC371"/>
</linearGradient>
<clipPath id="clip0">
<rect width="406" height="192" fill="white"/>
</clipPath>
</defs>
</svg>
