<svg width="12" height="12" viewBox="0 0 12 12" fill="none" xmlns="http://www.w3.org/2000/svg">
<circle cx="6" cy="6" r="5" fill="#A7A7A7"/>
<path fill-rule="evenodd" clip-rule="evenodd" d="M6 3C5.47221 3 5.06679 3.46746 5.14144 3.98995L5.42928 6.00454C5.46986 6.28855 5.7131 6.49951 6 6.49951C6.2869 6.49951 6.53014 6.28855 6.57072 6.00454L6.85856 3.98995C6.93321 3.46746 6.52779 3 6 3ZM6 9C6.55228 9 7 8.55228 7 8C7 7.44772 6.55228 7 6 7C5.44772 7 5 7.44772 5 8C5 8.55228 5.44772 9 6 9Z" fill="white"/>
</svg>
