<svg width="86" height="30" viewBox="0 0 86 30" fill="none" xmlns="http://www.w3.org/2000/svg">
<g opacity="0.4">
<path d="M23.7165 8.57307H28.5018V28.8274H23.7165V8.57307Z" fill="#2B2A35"/>
<path d="M23.4025 2.87372C23.4025 1.28626 24.6141 1.52588e-05 26.1096 1.52588e-05C27.605 1.52588e-05 28.8167 1.28626 28.8167 2.87372C28.8167 4.46118 27.605 5.74743 26.1096 5.74743C24.6141 5.74743 23.4025 4.46118 23.4025 2.87372Z" fill="#2B2A35"/>
<path d="M57.9208 22.0468C56.9085 23.5854 55.2367 24.5867 53.3348 24.5867C50.2519 24.5867 47.7519 21.9328 47.7519 18.6602C47.7519 15.3876 50.2519 12.7337 53.3348 12.7337C55.2674 12.7337 56.9698 13.7757 57.9744 15.355L62.1003 12.7663C60.2598 9.68903 57.0235 7.65382 53.3348 7.65382C47.6062 7.65382 42.9589 12.5872 42.9589 18.6684C42.9589 24.7495 47.6062 29.6829 53.3348 29.6829C57.0082 29.6829 60.2291 27.6558 62.0773 24.603L57.9208 22.0468Z" fill="#2B2A35"/>
<path d="M64.4154 0.03302H69.2007V10.4288C70.8955 8.71114 73.1885 7.66097 75.7192 7.66097C80.934 7.66097 85.1596 12.1466 85.1596 17.6823V28.8352H80.3742V18.6674C80.3742 15.3947 77.8742 12.7408 74.7913 12.7408C71.7084 12.7408 69.2084 15.3947 69.2084 18.6674V28.8352H64.4154V0.03302Z" fill="#2B2A35"/>
<path d="M31.4311 1.52588e-05V22.0535C31.4311 26.2623 34.6443 29.6814 38.6168 29.6814C40.4419 29.6814 42.1061 28.9569 43.3714 27.7684L41.0248 23.641C40.5493 24.3981 39.7441 24.8784 38.8392 24.8784C37.3898 24.8784 36.2164 23.6328 36.2164 22.0942V13.6603H41.0018V8.58044H36.2164V1.52588e-05H31.4311Z" fill="#2B2A35"/>
<path fill-rule="evenodd" clip-rule="evenodd" d="M0.840439 0.0317841V28.834H5.62579V23.7541H10.4111C16.5845 23.7541 21.5846 18.4463 21.5846 11.893C21.5846 5.3396 16.5845 0.0317841 10.4188 0.0317841H0.840439ZM10.4188 5.11166H5.62579V18.6661H10.4111C13.9388 18.6661 16.7916 15.6296 16.7916 11.893C16.7916 8.15632 13.9388 5.11166 10.4188 5.11166Z" fill="#2B2A35"/>
</g>
</svg>
