<svg width="12" height="12" viewBox="0 0 12 12" fill="none" xmlns="http://www.w3.org/2000/svg">
<g clip-path="url(#clip0)">
<path fill-rule="evenodd" clip-rule="evenodd" d="M7.50001 5.62501C7.50001 7.07227 6.32227 8.25001 4.87501 8.25001C3.42774 8.25001 2.25 7.07227 2.25 5.62501C2.25 4.17774 3.42774 3 4.87501 3C6.32227 3 7.50001 4.17774 7.50001 5.62501V5.62501ZM10.5 10.5C10.5 10.3008 10.418 10.1074 10.2832 9.97267L8.27345 7.9629C8.74806 7.27735 9.00001 6.45704 9.00001 5.62501C9.00001 3.34571 7.1543 1.5 4.87501 1.5C2.59571 1.5 0.75 3.34571 0.75 5.62501C0.75 7.9043 2.59571 9.75001 4.87501 9.75001C5.70704 9.75001 6.52735 9.49806 7.2129 9.02345L9.22267 11.0274C9.35743 11.168 9.55079 11.25 9.75001 11.25C10.1602 11.25 10.5 10.9102 10.5 10.5V10.5Z" fill="#586EE0"/>
</g>
<defs>
<clipPath id="clip0">
<rect width="12" height="12" fill="white"/>
</clipPath>
</defs>
</svg>
