<svg width="12" height="12" viewBox="0 0 12 12" fill="none" xmlns="http://www.w3.org/2000/svg">
<path opacity="0.12" fill-rule="evenodd" clip-rule="evenodd" d="M12 6C12 2.68629 9.31371 0 6 0C2.68629 0 0 2.68629 0 6C0 9.31371 2.68629 12 6 12C9.31371 12 12 9.31371 12 6Z" fill="#586EE0"/>
<path d="M3.14645 8.14645C2.95118 8.34171 2.95118 8.65829 3.14645 8.85355C3.34171 9.04882 3.65829 9.04882 3.85355 8.85355L3.14645 8.14645ZM8.85355 3.85355C9.04882 3.65829 9.04882 3.34171 8.85355 3.14645C8.65829 2.95118 8.34171 2.95118 8.14645 3.14645L8.85355 3.85355ZM3.85355 8.85355L8.85355 3.85355L8.14645 3.14645L3.14645 8.14645L3.85355 8.85355Z" fill="#586EE0"/>
<path d="M3.85355 3.14645C3.65829 2.95118 3.34171 2.95118 3.14645 3.14645C2.95118 3.34171 2.95118 3.65829 3.14645 3.85355L3.85355 3.14645ZM8.14645 8.85355C8.34171 9.04882 8.65829 9.04882 8.85355 8.85355C9.04882 8.65829 9.04882 8.34171 8.85355 8.14645L8.14645 8.85355ZM3.14645 3.85355L8.14645 8.85355L8.85355 8.14645L3.85355 3.14645L3.14645 3.85355Z" fill="#586EE0"/>
</svg>
