<svg width="24" height="24" viewBox="0 0 24 24" fill="none" xmlns="http://www.w3.org/2000/svg">
<path fill-rule="evenodd" clip-rule="evenodd" d="M6.70283 13.2886C7.0957 13.6768 7.09953 14.3099 6.71137 14.7028C6.32321 15.0957 5.69006 15.0995 5.29718 14.7114L3.29716 12.7354C3.10849 12.549 3.00159 12.2952 3 12.03C2.99841 11.7648 3.10225 11.5098 3.28868 11.3211L5.2887 9.29712C5.67689 8.90427 6.31004 8.9005 6.70289 9.28869C7.09573 9.67688 7.0995 10.31 6.71131 10.7029L5.41423 12.0155L6.70283 13.2886ZM14.7028 17.2886C14.31 16.9005 13.6768 16.9043 13.2886 17.2972L12.0155 18.5858L10.7029 17.2887C10.31 16.9005 9.67688 16.9043 9.28869 17.2971C8.9005 17.69 8.90428 18.3231 9.29712 18.7113L11.3211 20.7113C11.5098 20.8977 11.7648 21.0016 12.03 21C12.2952 20.9984 12.5489 20.8915 12.7354 20.7028L14.7114 18.7028C15.0995 18.31 15.0957 17.6768 14.7028 17.2886ZM10.7071 6.70711C10.3166 7.09763 9.68342 7.09763 9.29289 6.70711C8.90237 6.31658 8.90237 5.68342 9.29289 5.29289L11.2929 3.29289C11.6834 2.90237 12.3166 2.90237 12.7071 3.29289L14.7071 5.29289C15.0976 5.68342 15.0976 6.31658 14.7071 6.70711C14.3166 7.09763 13.6834 7.09763 13.2929 6.70711L12 5.41421L10.7071 6.70711ZM17.2972 10.7114C16.9043 10.3232 16.9005 9.69004 17.2886 9.29717C17.6768 8.9043 18.31 8.90048 18.7028 9.28864L20.7028 11.2646C20.8915 11.4511 20.9984 11.7048 21 11.97C21.0016 12.2352 20.8977 12.4902 20.7113 12.6789L18.7113 14.7029C18.3231 15.0957 17.69 15.0995 17.2971 14.7113C16.9043 14.3231 16.9005 13.69 17.2887 13.2971L18.5858 11.9845L17.2972 10.7114Z" fill="#586EE0"/>
</svg>
