<svg width="90" height="32" viewBox="0 0 90 32" fill="none" xmlns="http://www.w3.org/2000/svg">
    <path d="M24.4173 9.15065H29.525V30.7696H24.4173V9.15065Z" fill="white"/>
    <path d="M24.0821 3.06732C24.0821 1.37291 25.3754 0 26.9716 0C28.5678 0 29.8611 1.37291 29.8611 3.06732C29.8611 4.76174 28.5678 6.13464 26.9716 6.13464C25.3754 6.13464 24.0821 4.76174 24.0821 3.06732Z" fill="white"/>
    <path d="M60.926 23.5323C59.8455 25.1746 58.0611 26.2433 56.0311 26.2433C52.7405 26.2433 50.0721 23.4106 50.0721 19.9175C50.0721 16.4244 52.7405 13.5917 56.0311 13.5917C58.0938 13.5917 59.911 14.704 60.9833 16.3897L65.3871 13.6265C63.4226 10.3419 59.9683 8.1696 56.0311 8.1696C49.9165 8.1696 44.9561 13.4353 44.9561 19.9262C44.9561 26.4171 49.9165 31.6828 56.0311 31.6828C59.952 31.6828 63.3899 29.5192 65.3626 26.2607L60.926 23.5323Z" fill="white"/>
    <path d="M67.8582 0.0351301H72.966V11.1314C74.7749 9.29792 77.2224 8.177 79.9236 8.177C85.4898 8.177 90 12.9648 90 18.8735V30.7779H84.8922V19.9249C84.8922 16.4318 82.2238 13.5991 78.9332 13.5991C75.6426 13.5991 72.9741 16.4318 72.9741 19.9249V30.7779H67.8582V0.0351301Z" fill="white"/>
    <path d="M32.6516 0V23.5393C32.6516 28.0317 36.0814 31.6812 40.3215 31.6812C42.2696 31.6812 44.0459 30.9078 45.3965 29.6392L42.8917 25.2337C42.3842 26.0418 41.5247 26.5545 40.5588 26.5545C39.0118 26.5545 37.7594 25.225 37.7594 23.5828V14.5806H42.8671V9.15852H37.7594V0H32.6516Z" fill="white"/>
    <path fill-rule="evenodd" clip-rule="evenodd" d="M0 0.0339215V30.7767H5.10776V25.3545H10.2155C16.8048 25.3545 22.1418 19.6891 22.1418 12.6942C22.1418 5.69934 16.8048 0.0339215 10.2237 0.0339215H0ZM10.2237 5.45604H5.10776V19.9237H10.2155C13.9808 19.9237 17.0259 16.6826 17.0259 12.6942C17.0259 8.70584 13.9808 5.45604 10.2237 5.45604Z" fill="white"/>
</svg>
