<svg width="18" height="14" viewBox="0 0 18 14" fill="none" xmlns="http://www.w3.org/2000/svg">
<path fill-rule="evenodd" clip-rule="evenodd" d="M3 0H7V1C7 2.10457 7.89543 3 9 3C10.1046 3 11 2.10457 11 1V0H15C15.5523 0 16 0.447715 16 1V5C17.1046 5 18 5.89543 18 7C18 8.10457 17.1046 9 16 9V13C16 13.5523 15.5523 14 15 14H11V13C11 11.8954 10.1046 11 9 11C7.89543 11 7 11.8954 7 13V14H3C2.44772 14 2 13.5523 2 13V9C0.895431 9 0 8.10457 0 7C0 5.89543 0.895431 5 2 5V1C2 0.447716 2.44772 0 3 0Z" fill="white"/>
</svg>
