<svg width="97" height="78" viewBox="0 0 97 78" fill="none" xmlns="http://www.w3.org/2000/svg">
<g clip-path="url(#clip0)">
<path d="M6 0.5H91C94.0376 0.5 96.5 2.96243 96.5 6V72C96.5 75.0376 94.0376 77.5 91 77.5H6C2.96243 77.5 0.5 75.0376 0.5 72V6C0.5 2.96243 2.96243 0.5 6 0.5Z" stroke="#2B2A35" stroke-opacity="0.15"/>
<path d="M63 16C64.1046 16 65 16.8954 65 18C65 19.1046 64.1046 20 63 20L20 20V16L63 16Z" fill="#586EE0"/>
<path d="M63 16.3566C63.9076 16.3566 64.6434 17.0924 64.6434 18C64.6434 18.9076 63.9076 19.6434 63 19.6434L20.3566 19.6434V16.3566L63 16.3566Z" stroke="white" stroke-opacity="0.02" stroke-width="0.713235"/>
<path d="M55 30C56.1046 30 57 30.8954 57 32C57 33.1046 56.1046 34 55 34H20V30L55 30Z" fill="#586EE0"/>
<path d="M55 30.3566C55.9076 30.3566 56.6434 31.0924 56.6434 32C56.6434 32.9076 55.9076 33.6434 55 33.6434H20.3566V30.3566L55 30.3566Z" stroke="white" stroke-opacity="0.02" stroke-width="0.713235"/>
<path d="M80 44C81.1046 44 82 44.8954 82 46C82 47.1046 81.1046 48 80 48H20V44L80 44Z" fill="#586EE0"/>
<path d="M80 44.3566C80.9076 44.3566 81.6434 45.0924 81.6434 46C81.6434 46.9076 80.9076 47.6434 80 47.6434H20.3566V44.3566L80 44.3566Z" stroke="white" stroke-opacity="0.02" stroke-width="0.713235"/>
<path d="M45 57C46.1046 57 47 57.8954 47 59C47 60.1046 46.1046 61 45 61H20V57H45Z" fill="#586EE0"/>
<path d="M45 57.3566C45.9076 57.3566 46.6434 58.0924 46.6434 59C46.6434 59.9076 45.9076 60.6434 45 60.6434H20.3566V57.3566H45Z" stroke="white" stroke-opacity="0.02" stroke-width="0.713235"/>
<rect x="11" y="15" width="6" height="6" rx="2" fill="#DDDFE5"/>
<rect x="11" y="29" width="6" height="6" rx="2" fill="#DDDFE5"/>
<rect x="11" y="43" width="6" height="6" rx="2" fill="#DDDFE5"/>
<rect x="11" y="57" width="6" height="6" rx="2" fill="#DDDFE5"/>
</g>
<defs>
<clipPath id="clip0">
<rect width="97" height="78" fill="white"/>
</clipPath>
</defs>
</svg>
