<svg width="48" height="36" viewBox="0 0 48 36" fill="none" xmlns="http://www.w3.org/2000/svg">
<g opacity="0.7">
<path fill-rule="evenodd" clip-rule="evenodd" d="M0 5C0 2.23858 2.23858 0 5 0H43C45.7614 0 48 2.23858 48 5V31C48 33.7614 45.7614 36 43 36H5C2.23858 36 0 33.7614 0 31V5ZM19.5 13L9 29H38L29 18L25.5 21.5L19.5 13ZM35 16C32.7909 16 31 14.2091 31 12C31 9.79086 32.7909 8 35 8C37.2091 8 39 9.79086 39 12C39 14.2091 37.2091 16 35 16Z" fill="#545465" style="mix-blend-mode:overlay"/>
</g>
</svg>
