<svg width="97" height="78" viewBox="0 0 97 78" fill="none" xmlns="http://www.w3.org/2000/svg">
<path d="M6 0.5H91C94.0376 0.5 96.5 2.96243 96.5 6V72C96.5 75.0376 94.0376 77.5 91 77.5H6C2.96243 77.5 0.5 75.0376 0.5 72V6C0.5 2.96243 2.96243 0.5 6 0.5Z" stroke="#2B2A35" stroke-opacity="0.15"/>
<path d="M36 18C36 16.8954 36.8954 16 38 16C39.1046 16 40 16.8954 40 18V56H36V18Z" fill="#586EE0"/>
<path d="M36.3566 18C36.3566 17.0924 37.0924 16.3566 38 16.3566C38.9076 16.3566 39.6434 17.0924 39.6434 18V55.6434H36.3566V18Z" stroke="white" stroke-opacity="0.02" stroke-width="0.713235"/>
<path d="M57 29C57 27.8954 57.8954 27 59 27C60.1046 27 61 27.8954 61 29V56H57V29Z" fill="#586EE0"/>
<path d="M57.3566 29C57.3566 28.0924 58.0924 27.3566 59 27.3566C59.9076 27.3566 60.6434 28.0924 60.6434 29V55.6434H57.3566V29Z" stroke="white" stroke-opacity="0.02" stroke-width="0.713235"/>
<path d="M78 21C78 19.8954 78.8954 19 80 19C81.1046 19 82 19.8954 82 21V56H78V21Z" fill="#586EE0"/>
<path d="M78.3566 21C78.3566 20.0924 79.0924 19.3566 80 19.3566C80.9076 19.3566 81.6434 20.0924 81.6434 21V55.6434H78.3566V21Z" stroke="white" stroke-opacity="0.02" stroke-width="0.713235"/>
<path d="M15 39C15 37.8954 15.8955 37 17 37C18.1046 37 19.0001 37.8954 19.0001 39V56H15V39Z" fill="#586EE0"/>
<path d="M15.3566 39C15.3566 38.0924 16.0924 37.3566 17 37.3566C17.9077 37.3566 18.6434 38.0924 18.6434 39V55.6434H15.3566V39Z" stroke="white" stroke-opacity="0.02" stroke-width="0.713235"/>
<rect x="14" y="59" width="6" height="6" rx="2" fill="#DDDFE5"/>
<rect x="35" y="59" width="6" height="6" rx="2" fill="#DDDFE5"/>
<rect x="56" y="59" width="6" height="6" rx="2" fill="#DDDFE5"/>
<rect x="77" y="59" width="6" height="6" rx="2" fill="#DDDFE5"/>
</svg>
