<svg width="97" height="78" viewBox="0 0 97 78" fill="none" xmlns="http://www.w3.org/2000/svg">
<g clip-path="url(#clip0)">
<path d="M6 0.5H91C94.0376 0.5 96.5 2.96243 96.5 6V72C96.5 75.0376 94.0376 77.5 91 77.5H6C2.96243 77.5 0.5 75.0376 0.5 72V6C0.5 2.96243 2.96243 0.5 6 0.5Z" stroke="#2B2A35" stroke-opacity="0.15"/>
<path d="M33 28C33 26.8954 33.8954 26 35 26C36.1046 26 37 26.8954 37 28V56H33V28Z" fill="#586EE0"/>
<path d="M33.3566 28C33.3566 27.0924 34.0924 26.3566 35 26.3566C35.9076 26.3566 36.6434 27.0924 36.6434 28V55.6434H33.3566V28Z" stroke="white" stroke-opacity="0.02" stroke-width="0.713235"/>
<path d="M54 41C54 39.8954 54.8954 39 56 39C57.1046 39 58 39.8954 58 41V56H54V41Z" fill="#586EE0"/>
<path d="M54.3566 41C54.3566 40.0924 55.0924 39.3566 56 39.3566C56.9076 39.3566 57.6434 40.0924 57.6434 41V55.6434H54.3566V41Z" stroke="white" stroke-opacity="0.02" stroke-width="0.713235"/>
<path d="M75 26C75 24.8954 75.8954 24 77 24C78.1046 24 79 24.8954 79 26V56H75V26Z" fill="#586EE0"/>
<path d="M75.3566 26C75.3566 25.0924 76.0924 24.3566 77 24.3566C77.9076 24.3566 78.6434 25.0924 78.6434 26V55.6434H75.3566V26Z" stroke="white" stroke-opacity="0.02" stroke-width="0.713235"/>
<path d="M12 39C12 37.8954 12.8955 37 14 37C15.1046 37 16.0001 37.8954 16.0001 39V56H12V39Z" fill="#586EE0"/>
<path d="M12.3566 39C12.3566 38.0924 13.0924 37.3566 14 37.3566C14.9077 37.3566 15.6434 38.0924 15.6434 39V55.6434H12.3566V39Z" stroke="white" stroke-opacity="0.02" stroke-width="0.713235"/>
<path d="M39 15C39 13.8954 39.8954 13 41 13C42.1046 13 43 13.8954 43 15V56H39V15Z" fill="#AB6EF9"/>
<path d="M39.3566 15C39.3566 14.0924 40.0924 13.3566 41 13.3566C41.9076 13.3566 42.6434 14.0924 42.6434 15V55.6434H39.3566V15Z" stroke="white" stroke-opacity="0.02" stroke-width="0.713235"/>
<path d="M60 21C60 19.8954 60.8954 19 62 19C63.1046 19 64 19.8954 64 21V56H60V21Z" fill="#AB6EF9"/>
<path d="M60.3566 21C60.3566 20.0924 61.0924 19.3566 62 19.3566C62.9076 19.3566 63.6434 20.0924 63.6434 21V55.6434H60.3566V21Z" stroke="white" stroke-opacity="0.02" stroke-width="0.713235"/>
<path d="M81 39C81 37.8954 81.8954 37 83 37C84.1046 37 85 37.8954 85 39V56H81V39Z" fill="#AB6EF9"/>
<path d="M81.3566 39C81.3566 38.0924 82.0924 37.3566 83 37.3566C83.9076 37.3566 84.6434 38.0924 84.6434 39V55.6434H81.3566V39Z" stroke="white" stroke-opacity="0.02" stroke-width="0.713235"/>
<path d="M18 51C18 49.8954 18.8955 49 20 49C21.1046 49 22.0001 49.8954 22.0001 51V56H18V51Z" fill="#AB6EF9"/>
<path d="M18.3566 51C18.3566 50.0924 19.0924 49.3566 20 49.3566C20.9077 49.3566 21.6434 50.0924 21.6434 51V55.6434H18.3566V51Z" stroke="white" stroke-opacity="0.02" stroke-width="0.713235"/>
<rect x="14" y="59" width="6" height="6" rx="2" fill="#DDDFE5"/>
<rect x="35" y="59" width="6" height="6" rx="2" fill="#DDDFE5"/>
<rect x="56" y="59" width="6" height="6" rx="2" fill="#DDDFE5"/>
<rect x="77" y="59" width="6" height="6" rx="2" fill="#DDDFE5"/>
</g>
<defs>
<clipPath id="clip0">
<rect width="97" height="78" fill="white"/>
</clipPath>
</defs>
</svg>
