<svg width="97" height="78" viewBox="0 0 97 78" fill="none" xmlns="http://www.w3.org/2000/svg">
<path d="M0.5 6C0.5 2.96243 2.96243 0.5 6 0.5H91C94.0376 0.5 96.5 2.96243 96.5 6V72C96.5 75.0376 94.0376 77.5 91 77.5H6C2.96243 77.5 0.5 75.0376 0.5 72V6Z" stroke="#2B2A35" stroke-opacity="0.15"/>
<rect x="14" y="59" width="6" height="6" rx="2" fill="#DDDFE5"/>
<rect x="35" y="59" width="6" height="6" rx="2" fill="#DDDFE5"/>
<rect x="56" y="59" width="6" height="6" rx="2" fill="#DDDFE5"/>
<rect x="77" y="59" width="6" height="6" rx="2" fill="#DDDFE5"/>
<path fill-rule="evenodd" clip-rule="evenodd" d="M80.8321 26.4453C81.1385 26.9048 81.0143 27.5257 80.5548 27.832L66.2398 37.3753C61.8276 40.3168 56.1322 40.513 51.5281 37.882L39.9345 31.2571C38.4557 30.4121 36.814 29.8916 35.1185 29.7301L16.9053 27.9955C16.3555 27.9431 15.9522 27.455 16.0046 26.9052C16.0569 26.3554 16.5451 25.9521 17.0949 26.0045L35.3081 27.7391C37.2862 27.9275 39.2015 28.5348 40.9267 29.5206L52.5204 36.1455C56.4668 38.4006 61.3485 38.2325 65.1304 35.7112L79.4454 26.1679C79.9049 25.8616 80.5258 25.9858 80.8321 26.4453Z" fill="#FFBB5C"/>
<circle cx="17" cy="27" r="3" fill="#FFBB5C"/>
<circle cx="38" cy="29" r="3" fill="#FFBB5C"/>
<circle cx="59" cy="39" r="3" fill="#FFBB5C"/>
<circle cx="80" cy="27" r="3" fill="#FFBB5C"/>
<path fill-rule="evenodd" clip-rule="evenodd" d="M79.3988 19.5618C79.6409 20.0582 79.4348 20.6569 78.9384 20.899L63.9837 28.194C60.2045 30.0375 55.7968 30.0847 51.979 28.3227L47.0793 26.0612C42.1733 23.797 36.3592 25.0907 32.8763 29.2216L17.7645 47.1448C17.4085 47.5671 16.7777 47.6208 16.3554 47.2647C15.9332 46.9087 15.8795 46.2779 16.2355 45.8556L31.3472 27.9324C35.4106 23.113 42.1938 21.6037 47.9174 24.2453L52.8171 26.5067C56.0895 28.0171 59.8676 27.9766 63.1069 26.3964L78.0616 19.1015C78.558 18.8593 79.1567 19.0654 79.3988 19.5618Z" fill="#586EE0"/>
<circle cx="17" cy="46" r="3" fill="#586EE0"/>
<circle cx="38" cy="25" r="3" fill="#586EE0"/>
<circle cx="59" cy="29" r="3" fill="#586EE0"/>
<circle cx="80" cy="20" r="3" fill="#586EE0"/>
</svg>
