<svg fill="none" height="30" viewBox="0 0 227 30" width="227" xmlns="http://www.w3.org/2000/svg" xmlns:xlink="http://www.w3.org/1999/xlink"><clipPath id="a"><path d="m60 3h106.25v25h-106.25z"/></clipPath><g clip-path="url(#a)" clip-rule="evenodd" fill="#fff" fill-rule="evenodd"><path d="m60 25.7471c0 1.3665.8868 2.2528 2.2538 2.2528l6.585.0001c3.9282 0 7.1417-1.3286 9.3264-3.6545h-18.1652zm8.8388-22.74698-6.585-.00012c-1.367 0-2.2538.88637-2.2538 2.25286v1.40162h18.1652c-2.1847-2.32586-5.3982-3.65436-9.3264-3.65436zm5.7467 16.06208c0 1.1055.7204 1.8227 1.8312 1.8227h3.9458c.4473-1.1095.7478-2.3292.8875-3.6455h-4.8333c-1.1108 0-1.8312.7172-1.8312 1.8228zm-5.4692-7.1154c0 1.1056.7204 1.8228 1.8312 1.8228h10.3025c-.1397-1.3163-.4402-2.536-.8875-3.6455h-9.415c-1.1108 0-1.8312.7171-1.8312 1.8227zm1.8299 7.1154c0-1.1056-.7204-1.8228-1.8312-1.8228h-9.115v3.6455h9.115c1.1108 0 1.8312-.7171 1.8312-1.8227zm-5.4692-7.1154c0-1.1056-.7205-1.8227-1.8312-1.8227h-3.6458v3.6455h3.6458c1.1107 0 1.8312-.7172 1.8312-1.8228z"/><path d="m106.34 15.1236c.294-1.4267 1.242-2.1521 2.487-2.1521 1.235 0 2.139.758 2.427 2.1521zm2.555-4.6236c-3.172 0-5.145 2.5398-5.145 5.6463 0 3.2174 2.108 5.6037 5.242 5.6037 2.161 0 3.472-1.0015 4.283-2.2626l-2.017-1.2915c-.507.6943-1.319 1.0612-2.189 1.0612-1.423 0-2.376-.6677-2.7-2.0029h5.324c0 .0018-.001.0035-.001.0054l1.941.0114c.074-.3514.117-.7144.117-1.1247 0-2.7059-1.663-5.6463-4.855-5.6463z"/><path d="m95.625 19.25c-1.9517 0-3.125-1.3992-3.125-3.1251 0-1.7258 1.1958-3.1249 3.125-3.1249s3.125 1.3991 3.125 3.1249c0 1.7259-1.1733 3.1251-3.125 3.1251zm2.9123-7.0983c-.7793-.936-1.8858-1.5098-3.2593-1.5098-3.07 0-5.278 2.4868-5.278 5.5541 0 3.0674 2.187 5.554 5.278 5.554 1.3735 0 2.48-.5738 3.2593-1.5098v1.2363h2.7127v-14.7265h-2.7127z"/><path d="m122.046 15.9404c.736.5145 1.203 1.2859 1.203 2.3039 0 2.0574-1.387 3.4848-3.98 3.4848-2.44 0-3.748-1.2502-4.269-2.5129l2.239-1.3077s.302 1.3645 1.99 1.3645c1.045 0 1.367-.4619 1.367-.8698 0-.189-.061-.5367-.804-.8307-1.494-.5902-4.381-.855-4.381-3.5477 0-2.2041 1.727-3.3796 3.858-3.3796 1.993 0 3.273 1.2399 3.759 2.2046l-2.191 1.28s-.422-1.0706-1.548-1.0706c-1.125 0-1.226.6508-1.226.8397 0 .5511.562.7773 1.769 1.1337.715.2109 1.449.4025 2.216.9059-.001.0006-.002.0013-.002.0019zm44.204-2.3984h-2.271v4.3664c0 1.3646 1.326 1.0706 2.271 1.0706v2.4561s-.498.084-1.367.084c-1.929 0-3.497-.5877-3.497-3.6107v-4.3664h-1.748v-2.6031h1.748v-2.9389h2.593v2.9389h2.271zm-36.556 5.542c1.076 0 1.903-.536 2.321-1.4154l2.248 1.346c-.881 1.6131-2.522 2.7354-4.569 2.7354-3.105 0-5.276-2.4812-5.276-5.5419 0-3.0608 2.191-5.542 5.276-5.542 2.017 0 3.652 1.104 4.542 2.6957l-2.242 1.3767c-.427-.8679-1.247-1.4064-2.3-1.4064-1.569 0-2.683 1.2876-2.683 2.876 0 1.5883 1.104 2.8759 2.683 2.8759z"/><path d="m153.527 19.0554c-1.689 0-2.704-1.3167-2.704-2.9408 0-1.6242 1.035-2.9407 2.704-2.9407 1.67 0 2.704 1.3165 2.704 2.9407 0 1.6241-1.015 2.9408-2.704 2.9408zm.322-8.447c2.851 0 4.901 2.4653 4.901 5.5062 0 3.041-2.031 5.5061-4.901 5.5061-1.275 0-2.302-.5688-3.026-1.4968v5.3761h-2.519v-14.5995h2.519v1.2047c.724-.928 1.751-1.4968 3.026-1.4968zm-10.387 10.7411v-10.4282h2.519v10.4282zm-4.693-8.6469c.486-1.2637 1.476-1.9865 2.967-1.9898v3.0034c-1.748-.1767-3.011.752-2.965 2.9458-.001-.0015-.002-.0032-.002-.0049v4.6924h-2.519v-10.4281h2.519zm4.693-3.17302v-2.77958h2.602v2.77958z"/></g></svg>