<svg width="227" height="35" viewBox="0 0 227 35" fill="none" xmlns="http://www.w3.org/2000/svg">
<path d="M91.3674 2.87154L103.571 10.3965V24.4377L91.3726 31.8186L79.1689 24.4326V10.3914L91.3674 2.87154ZM91.3674 1.13184C91.0535 1.13184 90.7343 1.21934 90.4564 1.38919L78.2579 8.91419C77.7432 9.23331 77.4292 9.78919 77.4292 10.3965V24.4377C77.4292 25.0451 77.7483 25.6113 78.2682 25.9252L90.4718 33.3113C90.7498 33.4811 91.0586 33.5635 91.3726 33.5635C91.6866 33.5635 91.9954 33.4811 92.2733 33.3113L104.477 25.9252C104.997 25.6113 105.316 25.0451 105.316 24.4377V10.3914C105.316 9.78919 105.002 9.22816 104.487 8.90904L92.2836 1.38919C92.0005 1.21934 91.6866 1.13184 91.3674 1.13184ZM100.102 18.5546C100.236 18.2252 100.153 17.8443 99.891 17.6024L95.0116 12.9649C94.6616 12.6355 94.1108 12.651 93.7814 12.9958C93.452 13.3458 93.4623 13.8965 93.8123 14.226L97.1116 17.3605H83.4461C82.9674 17.3605 82.5763 17.7517 82.5763 18.2304C82.5763 18.709 82.9674 19.1002 83.4461 19.1002H99.2991C99.6542 19.1002 99.9733 18.884 100.102 18.5546ZM114.936 11.2304H122.677V12.7951H116.609V16.6554H122.26V18.2201H116.609V23.5421H114.941V11.2304H114.936ZM125.163 10.3965H126.728V23.5473H125.163V10.3965ZM137.042 23.5473H135.478V22.276H135.442C135.246 22.7186 134.901 23.0738 134.417 23.3465C133.928 23.6193 133.367 23.7532 132.729 23.7532C132.323 23.7532 131.942 23.6914 131.581 23.5679C131.221 23.4443 130.907 23.259 130.634 23.0017C130.362 22.7443 130.145 22.4201 129.981 22.0186C129.816 21.6171 129.739 21.1487 129.739 20.6032V15.3017H131.303V20.1708C131.303 20.5517 131.355 20.8811 131.458 21.1539C131.561 21.4267 131.7 21.648 131.875 21.8179C132.05 21.9877 132.251 22.1061 132.477 22.1833C132.703 22.2605 132.94 22.2965 133.182 22.2965C133.506 22.2965 133.81 22.2451 134.088 22.1421C134.366 22.0392 134.608 21.8745 134.819 21.648C135.03 21.4215 135.189 21.1333 135.308 20.7885C135.426 20.4385 135.483 20.0318 135.483 19.5532V15.3068H137.048V23.5473H137.042ZM142.195 19.1465L139.271 15.3017H141.289L143.291 18.2252L145.257 15.3017H147.151L144.336 19.1465L147.676 23.5473H145.659L143.224 20.0885L140.789 23.5473H138.859L142.195 19.1465Z" fill="white"/>
</svg>
