<svg width="227" height="30" viewBox="0 0 227 30" fill="none" xmlns="http://www.w3.org/2000/svg">
<path d="M70.7374 23.3675C70.7374 23.2925 70.7374 23.2229 70.7103 23.1425C70.5889 22.2718 70.2678 21.44 69.7715 20.7104C69.4554 20.3108 69.0909 19.951 68.6862 19.639C68.5668 19.5479 68.4637 19.5907 68.4583 19.7354L68.3552 21.2407C68.3552 21.3854 68.1815 21.3907 68.1381 21.2407L67.4652 19.1247C67.4342 19.048 67.388 18.9781 67.3293 18.9192C67.2706 18.8604 67.2006 18.8137 67.1234 18.7818C66.6728 18.6282 66.2123 18.5047 65.745 18.4122C65.1264 18.305 64.231 18.2461 64.231 18.2461C64.0791 18.2461 64.0303 18.3372 64.1171 18.455L65.0396 20.1104C65.1264 20.2336 65.0396 20.3515 64.9094 20.255L62.9016 18.6479C62.7144 18.5273 62.5041 18.446 62.2838 18.4092C62.0635 18.3723 61.8378 18.3806 61.6209 18.4336C61.1759 18.5032 60.5356 18.6372 60.5356 18.6372C60.4658 18.6525 60.404 18.6925 60.362 18.7497C60.3184 18.8043 60.2971 18.8731 60.3023 18.9425C60.3023 18.9425 60.3511 19.5854 60.4054 20.014C60.4118 20.2323 60.4633 20.447 60.5566 20.645C60.6498 20.843 60.7831 21.0202 60.948 21.1657L63.0372 22.6389C63.1675 22.7247 63.0752 22.8532 62.9341 22.7997L61.0728 22.3872C60.9318 22.3336 60.8504 22.3872 60.8938 22.5479C60.8938 22.5479 61.2031 23.3836 61.4744 23.9354C61.7042 24.3677 61.9654 24.783 62.2558 25.1782C62.3075 25.2423 62.3715 25.2956 62.4442 25.3351C62.5168 25.3747 62.5966 25.3996 62.6791 25.4086L64.9256 25.4622C65.0722 25.4622 65.1101 25.6282 64.9745 25.6711L63.5365 26.2068C63.3954 26.2497 63.3845 26.3568 63.5039 26.4479C63.9244 26.7443 64.38 26.989 64.8605 27.1764C65.7091 27.4481 66.6096 27.5233 67.4924 27.3961C68.1494 27.3046 68.7962 27.1521 69.4242 26.9407C69.4001 26.7631 69.3874 26.5842 69.3862 26.405C69.3882 25.8315 69.5113 25.2646 69.7477 24.7407C69.9841 24.2168 70.3285 23.7473 70.7591 23.3622" fill="white"/>
<path d="M86.7673 18.9701C86.7701 18.901 86.749 18.833 86.7076 18.7772V18.7772C86.6656 18.72 86.6038 18.68 86.5339 18.6647C86.5339 18.6647 85.8936 18.5308 85.4487 18.4665C85.2329 18.4135 85.0085 18.4047 84.7891 18.4407C84.5698 18.4766 84.3603 18.5565 84.1734 18.6754L82.1656 20.2826C82.0463 20.379 81.9486 20.2826 82.0354 20.1379L82.9525 18.4826C83.0447 18.3647 82.9959 18.2683 82.8439 18.2737C82.8439 18.2737 81.9486 18.3326 81.33 18.4397C80.8627 18.5323 80.4022 18.6558 79.9516 18.8094C79.8744 18.8412 79.8044 18.8879 79.7457 18.9468C79.687 19.0057 79.6408 19.0755 79.6098 19.1522L78.9369 21.2629C78.8935 21.4022 78.7253 21.3969 78.7198 21.2629L78.6113 19.7576C78.6113 19.6129 78.5082 19.5701 78.3888 19.6612C77.9842 19.9733 77.6197 20.3331 77.3035 20.7326C76.8081 21.4547 76.4869 22.2794 76.3647 23.1433C76.3647 23.2237 76.3647 23.2933 76.3647 23.3683C76.7956 23.7528 77.14 24.2223 77.3755 24.7465C77.6111 25.2706 77.7326 25.8377 77.7322 26.4112C77.731 26.5903 77.7183 26.7693 77.6942 26.9469C78.3243 27.1575 78.9729 27.3099 79.6315 27.4022C80.5142 27.5292 81.4147 27.454 82.2633 27.1826C82.7439 26.9951 83.1994 26.7505 83.6199 26.454C83.7393 26.3629 83.7285 26.2558 83.5874 26.2129L82.1494 25.6772C82.0137 25.6344 82.0517 25.4737 82.1982 25.4683L84.4393 25.4147C84.523 25.4077 84.6043 25.3835 84.6781 25.3439C84.7519 25.3042 84.8166 25.2499 84.868 25.1844C85.1357 24.799 85.3768 24.3963 85.5897 23.979C85.8665 23.4433 86.1758 22.5915 86.1758 22.5915C86.2192 22.4522 86.1378 22.3772 85.9967 22.4308L84.1354 22.8433C83.9889 22.8969 83.9021 22.7683 84.0269 22.6826L86.1324 21.2094C86.2974 21.0639 86.4306 20.8867 86.5239 20.6886C86.6172 20.4906 86.6686 20.2759 86.675 20.0576C86.7293 19.6129 86.7781 18.9861 86.7781 18.9861" fill="white"/>
<path d="M80.885 11.9671C80.885 11.7368 80.733 11.651 80.5268 11.7796L78.3562 12.9475C78.1555 13.076 78.1121 12.8296 78.2586 12.6421L80.3315 9.90997C80.4074 9.80297 80.458 9.68052 80.4796 9.55165C80.5012 9.42278 80.4932 9.29076 80.4563 9.16533C80.185 8.42897 79.8604 7.71284 79.485 7.02247C79.1062 6.41601 78.6856 5.83606 78.226 5.28676C78.0795 5.10461 77.9004 5.13676 77.8245 5.3564L76.8097 7.85819C76.7337 8.07783 76.5438 8.07247 76.5492 7.85819L76.6686 3.9314C76.6664 3.65257 76.5579 3.38479 76.3647 3.1814C76.3647 3.1814 75.7624 2.5814 75.2794 2.14211C74.7965 1.70283 73.8957 1.0064 73.8957 1.0064C73.799 0.928974 73.6783 0.886719 73.5538 0.886719C73.4293 0.886719 73.3086 0.928974 73.212 1.0064C73.212 1.0064 72.36 1.66533 71.8065 2.14211C71.253 2.6189 70.7212 3.17604 70.7212 3.17604C70.5255 3.37102 70.4095 3.63046 70.3956 3.90461L70.5204 7.8314C70.5204 8.06711 70.3359 8.07247 70.2545 7.8314L69.2398 5.3564C69.1692 5.13676 68.9847 5.10461 68.8382 5.29211C68.3528 5.87499 67.912 6.49277 67.5196 7.14033C67.1625 7.79224 66.8542 8.46904 66.5971 9.16533C66.5622 9.28892 66.5548 9.41851 66.5754 9.5452C66.596 9.67188 66.6441 9.79267 66.7165 9.89926L68.8002 12.6421C68.9467 12.8296 68.9033 13.076 68.6971 12.9475L66.5265 11.7796C66.3258 11.651 66.1575 11.7368 66.163 11.9671C66.1801 12.7251 66.3043 13.477 66.532 14.201C67.0449 15.511 67.865 16.6823 68.925 17.6189C70.3192 19.0395 71.4489 20.6916 72.2623 22.4993C73.0896 22.2351 73.9801 22.2351 74.8073 22.4993C75.6181 20.6969 76.74 19.0474 78.1229 17.6243C79.0935 16.7653 79.8669 15.7114 80.3912 14.5332C80.689 13.71 80.8556 12.8461 80.885 11.9725" fill="white"/>
<path d="M76.2616 26.411C76.2616 26.9408 76.1024 27.4586 75.8043 27.8991C75.5062 28.3396 75.0824 28.6829 74.5866 28.8857C74.0909 29.0884 73.5453 29.1414 73.019 29.0381C72.4927 28.9347 72.0092 28.6796 71.6298 28.305C71.2503 27.9304 70.9919 27.4531 70.8872 26.9336C70.7825 26.414 70.8363 25.8754 71.0416 25.3859C71.247 24.8965 71.5947 24.4782 72.0409 24.1838C72.4871 23.8895 73.0117 23.7324 73.5483 23.7324C74.2679 23.7324 74.958 24.0146 75.4669 24.517C75.9757 25.0193 76.2616 25.7006 76.2616 26.411" fill="white"/>
<path d="M148.982 22.532H153.963V21.857L153.28 21.6427C152.889 21.5248 152.845 21.4284 152.829 20.9838C152.829 20.448 152.829 19.457 152.829 18.4284V7.62305H152.574C151.291 7.62732 150.018 7.84464 148.808 8.2659V8.80162L149.595 8.9784C149.76 8.99975 149.911 9.08511 150.012 9.2157C150.114 9.3463 150.159 9.51145 150.138 9.67483C150.138 10.1195 150.138 10.9338 150.138 11.8605V18.4284C150.138 19.457 150.138 20.4588 150.138 20.9838C150.138 21.4284 150.1 21.5195 149.709 21.6427L148.998 21.857L148.982 22.532Z" fill="white"/>
<path d="M122.316 15.369C122.621 14.8984 122.797 14.3574 122.826 13.7993C122.844 13.6329 122.825 13.4646 122.77 13.3063C122.714 13.1481 122.624 13.0038 122.506 12.8836C122.388 12.7635 122.245 12.6704 122.086 12.6111C121.928 12.5518 121.758 12.5277 121.589 12.5404C120.764 12.5404 119.923 13.0279 119.337 14.6833V12.6583H119.136C117.861 12.6616 116.595 12.8771 115.392 13.2958V13.8583L116.157 14.0511C116.239 14.059 116.318 14.0831 116.389 14.1219C116.461 14.1608 116.525 14.2135 116.575 14.2771C116.626 14.3406 116.663 14.4137 116.684 14.4917C116.706 14.5698 116.711 14.6514 116.7 14.7315C116.7 15.1761 116.7 16.1993 116.7 17.1476V18.5243C116.7 19.5315 116.7 20.4583 116.7 21.0047C116.7 21.4279 116.662 21.5404 116.271 21.6422L115.565 21.8726V22.5315H120.704V21.8565L119.88 21.6208C119.467 21.5243 119.445 21.4279 119.429 21.0047C119.429 20.469 119.429 19.5315 119.429 18.5243V15.1922C119.741 14.9595 120.123 14.8369 120.514 14.844C121.15 14.8861 121.768 15.0692 122.321 15.3797L122.316 15.369ZM131.259 15.7065C131.345 14.7268 131.325 13.7409 131.199 12.7654C130.141 12.7279 129.322 12.5726 128.383 12.5726C125.751 12.5726 124.438 14.0833 124.438 15.7493C124.438 16.8208 124.948 17.8922 126.695 18.6154L127.319 18.8458C128.947 19.4672 129.305 19.9172 129.305 20.4904C129.305 21.0636 128.795 21.6529 127.677 21.6529C127.231 21.6686 126.793 21.5362 126.432 21.2769C126.071 21.0176 125.808 20.6464 125.686 20.2226L125.528 19.4243H124.335C124.196 20.4197 124.196 21.429 124.335 22.4243C125.399 22.5799 126.472 22.6783 127.547 22.719C130.548 22.719 131.856 20.8386 131.856 19.4243C131.856 18.4011 131.139 17.3565 129.143 16.5583L128.518 16.3279C127.004 15.7493 126.635 15.2565 126.635 14.6458C126.635 14.0351 127.178 13.6172 128.187 13.6011C129.197 13.5851 129.3 14.3779 129.517 15.1279L129.674 15.7065H131.259Z" fill="white"/>
<path d="M110.009 20.6582C109.637 20.9578 109.175 21.1273 108.696 21.1403C108.287 21.1418 107.893 20.9917 107.592 20.7198C107.29 20.4479 107.103 20.0741 107.068 19.6724C107.068 18.901 107.893 17.9207 109.993 17.6689L110.009 20.6582ZM114.03 22.1474L114.263 21.6117C112.771 21.301 112.597 20.9314 112.597 19.3617V15.9707C112.597 13.8814 111.675 12.5421 109.048 12.5421C107.809 12.4913 106.585 12.8308 105.554 13.5117C105.343 13.6493 105.17 13.8363 105.051 14.056C104.932 14.2758 104.869 14.5213 104.87 14.7707C104.888 15.2177 105.054 15.6466 105.342 15.9921C106.851 14.4599 107.773 14.0903 108.555 14.0903C109.672 14.0903 109.998 14.9314 110.009 16.5814C106.341 17.0689 104.653 18.4242 104.653 20.0474C104.653 20.7432 104.927 21.4119 105.417 21.9118C105.907 22.4117 106.575 22.7037 107.279 22.726C107.855 22.7336 108.422 22.5952 108.928 22.3241C109.433 22.053 109.86 21.6583 110.166 21.1778C110.28 21.6185 110.54 22.0088 110.905 22.2865C111.27 22.5642 111.719 22.7133 112.179 22.7099C112.832 22.6997 113.47 22.5145 114.024 22.1742" fill="white"/>
<path d="M166.227 13.4366V12.7188H161.886V13.4366L162.646 13.6455C163.215 13.8009 163.297 14.0527 163.139 14.5938C162.718 16.3535 162.19 18.0869 161.56 19.7848L158.934 14.342C158.739 13.9402 158.755 13.7259 159.308 13.5866L160.03 13.4366V12.7188H154.875V13.4741L155.228 13.5705C155.559 13.667 155.618 13.8009 155.835 14.2295L160.177 22.8009L159.921 23.3045C159.379 24.3277 158.451 25.008 155.803 25.7634C156.118 26.9795 156.682 27.542 157.371 27.542H157.414C158.435 27.542 159.704 26.1866 160.627 24.5634C161.908 22.3241 163.074 19.7098 164.968 14.5509C165.245 13.7955 165.305 13.6616 165.815 13.5438L166.227 13.4366Z" fill="white"/>
<path d="M145.791 22.6669C146.134 22.6669 146.47 22.5663 146.756 22.3779C147.041 22.1896 147.264 21.9218 147.395 21.6086C147.527 21.2954 147.561 20.9507 147.494 20.6181C147.427 20.2856 147.262 19.9801 147.019 19.7404C146.776 19.5006 146.467 19.3374 146.13 19.2712C145.793 19.2051 145.444 19.239 145.127 19.3688C144.809 19.4985 144.538 19.7182 144.347 20.0002C144.156 20.2821 144.055 20.6135 144.055 20.9526C144.055 21.4072 144.238 21.8433 144.563 22.1648C144.889 22.4862 145.33 22.6669 145.791 22.6669" fill="white"/>
<path d="M102.954 12.9693C102.96 12.1958 102.716 11.4406 102.257 10.8135C101.799 10.1863 101.15 9.71982 100.404 9.48175C99.4436 9.15497 98.4668 9.03711 96.3288 9.03711H91.3853V9.79247L91.9279 9.91032C93.0132 10.1407 93.0837 10.1782 93.1054 10.6068C93.1271 11.0353 93.1054 11.8443 93.1054 12.7496V19.0443C93.1054 19.9764 93.1054 20.7693 93.1054 21.2139C93.1054 21.6585 93.0078 21.68 91.9279 21.9103L91.3853 22.0282V22.7835H97.897V22.0282L97.311 21.9103C96.2257 21.68 96.1551 21.6425 96.1334 21.2139C96.1117 20.7853 96.1334 19.9764 96.1334 19.0443V10.2371C96.3798 10.2031 96.6281 10.1835 96.8768 10.1782C97.5048 10.1526 98.1241 10.3295 98.641 10.6823C99.158 11.0351 99.5445 11.5446 99.742 12.1335C99.9209 12.5837 100.008 13.0644 99.9971 13.5478C99.9971 14.555 99.704 15.5032 98.9118 16.0068C98.3309 16.3673 97.6475 16.5326 96.9637 16.4782V17.2657C100.437 17.8978 102.971 15.9639 102.971 12.98" fill="white"/>
<path d="M138.346 12.5248C137.732 12.5014 137.12 12.6008 136.547 12.8172C135.973 13.0336 135.45 13.3624 135.009 13.7838C134.518 14.2712 134.133 14.8523 133.877 15.4915C133.622 16.1308 133.501 16.8147 133.522 17.5016C133.522 20.3838 135.188 22.7248 138.406 22.7248C139.146 22.726 139.878 22.569 140.552 22.2648C141.225 21.9606 141.824 21.5163 142.307 20.9623L142.427 20.2498C141.596 20.6759 140.677 20.9069 139.74 20.9248C138.983 20.951 138.236 20.7391 137.608 20.3195C137.354 20.1539 137.133 19.9432 136.957 19.6981V19.6981L136.848 19.5481C136.592 19.166 136.408 18.7413 136.306 18.2945C136.243 18.0656 136.196 17.833 136.164 17.5981C136.076 16.9661 136.088 16.3243 136.202 15.6963C136.265 15.155 136.505 14.6488 136.886 14.2552C137.111 14.0376 137.403 13.9001 137.716 13.8641H137.765C138.033 13.837 138.303 13.8814 138.547 13.9927L138.612 14.0195C138.677 14.053 138.741 14.0906 138.802 14.132C138.963 14.2445 139.102 14.3841 139.214 14.5445L139.268 14.6248C139.301 14.6784 139.334 14.7213 139.361 14.7748C139.636 15.3676 139.743 16.0231 139.67 16.6713C139.667 16.6998 139.667 16.7285 139.67 16.757C139.67 16.757 139.67 16.757 139.67 16.757L136.989 16.9284C136.986 17.2899 137.032 17.6502 137.125 17.9998H142.356C142.942 14.1748 140.728 12.5677 138.395 12.5677" fill="white"/>
</svg>
