<svg width="272" height="102" viewBox="0 0 272 102" fill="none" xmlns="http://www.w3.org/2000/svg">
<path fill-rule="evenodd" clip-rule="evenodd" d="M1.902 0.760002L1.902 101.76H0.902L0.902 0.760002H1.902Z" fill="url(#paint0_linear)"/>
<path fill-rule="evenodd" clip-rule="evenodd" d="M16.902 0.760002L16.902 101.76H15.902L15.902 0.760002H16.902Z" fill="url(#paint1_linear)"/>
<path fill-rule="evenodd" clip-rule="evenodd" d="M31.902 0.760002L31.902 101.76H30.902L30.902 0.760002H31.902Z" fill="url(#paint2_linear)"/>
<path fill-rule="evenodd" clip-rule="evenodd" d="M46.902 0.760002V101.76H45.902V0.760002H46.902Z" fill="url(#paint3_linear)"/>
<path fill-rule="evenodd" clip-rule="evenodd" d="M61.902 0.760002V101.76H60.902V0.760002H61.902Z" fill="url(#paint4_linear)"/>
<path fill-rule="evenodd" clip-rule="evenodd" d="M76.902 0.760002V101.76H75.902V0.760002H76.902Z" fill="url(#paint5_linear)"/>
<path fill-rule="evenodd" clip-rule="evenodd" d="M91.902 0.760002V101.76H90.902V0.760002H91.902Z" fill="url(#paint6_linear)"/>
<path fill-rule="evenodd" clip-rule="evenodd" d="M106.902 0.760002V101.76H105.902V0.760002H106.902Z" fill="url(#paint7_linear)"/>
<path fill-rule="evenodd" clip-rule="evenodd" d="M121.902 0.760001L121.902 101.76L120.902 101.76L120.902 0.760002L121.902 0.760001Z" fill="url(#paint8_linear)"/>
<path fill-rule="evenodd" clip-rule="evenodd" d="M136.902 0.760002V101.76H135.902V0.760002H136.902Z" fill="url(#paint9_linear)"/>
<path fill-rule="evenodd" clip-rule="evenodd" d="M151.902 0.760002V101.76H150.902V0.760002H151.902Z" fill="url(#paint10_linear)"/>
<path fill-rule="evenodd" clip-rule="evenodd" d="M166.902 0.760002V101.76H165.902V0.760002H166.902Z" fill="url(#paint11_linear)"/>
<path fill-rule="evenodd" clip-rule="evenodd" d="M181.902 0.760002V101.76H180.902V0.760002H181.902Z" fill="url(#paint12_linear)"/>
<path fill-rule="evenodd" clip-rule="evenodd" d="M196.902 0.760002V101.76H195.902V0.760002H196.902Z" fill="url(#paint13_linear)"/>
<path fill-rule="evenodd" clip-rule="evenodd" d="M211.902 0.760002V101.76H210.902V0.760002H211.902Z" fill="url(#paint14_linear)"/>
<path fill-rule="evenodd" clip-rule="evenodd" d="M226.902 0.760002V101.76H225.902V0.760002H226.902Z" fill="url(#paint15_linear)"/>
<path fill-rule="evenodd" clip-rule="evenodd" d="M241.902 0.760002V101.76H240.902V0.760002H241.902Z" fill="url(#paint16_linear)"/>
<path fill-rule="evenodd" clip-rule="evenodd" d="M256.902 0.760002V101.76H255.902V0.760002H256.902Z" fill="url(#paint17_linear)"/>
<path fill-rule="evenodd" clip-rule="evenodd" d="M271.902 0.760002V101.76H270.902V0.760002H271.902Z" fill="url(#paint18_linear)"/>
<path d="M16.729 86.448L2.225 100.89H271.5V28.254L256.5 54.502H241.5L226.5 43.5L212 47.117L196.5 31.768L181 58.254L166.265 37.582L151 50.502L136.5 44.688L121.43 68.5001H91.776L76.241 83.448L61.737 77.634L46.233 90.537L31.481 86.448H16.729Z" fill="url(#paint19_linear)" fill-opacity="0.15"/>
<path fill-rule="evenodd" clip-rule="evenodd" d="M271.748 27.8199C271.988 27.9569 272.071 28.2623 271.934 28.5021L257.306 54.0991C256.987 54.6574 256.393 55.002 255.75 55.002H241.923C241.542 55.002 241.171 54.8804 240.863 54.655L226.693 44.2616C226.503 44.1224 226.261 44.0748 226.033 44.1318L212.826 47.4262C212.219 47.5777 211.576 47.4013 211.132 46.9608L197.331 33.2949C196.964 32.931 196.352 33.0112 196.091 33.4576L182.44 56.7835C181.783 57.9053 180.188 57.9769 179.434 56.9185L166.673 39.0156C166.404 38.6383 165.87 38.5714 165.516 38.8708L151.917 50.3812C151.41 50.8099 150.708 50.9236 150.092 50.6766L137.312 45.5521C136.957 45.41 136.552 45.541 136.348 45.8637L122.233 68.1663C121.904 68.6854 121.333 69 120.719 69H92.2966C92.0919 69 91.8951 69.0793 91.7475 69.2213L77.1893 83.2294C76.6814 83.7181 75.9342 83.8637 75.28 83.6015L62.266 78.3847C61.996 78.2765 61.6883 78.325 61.4647 78.5111L47.0727 90.4887C46.6211 90.8645 46.0139 90.9951 45.4477 90.8382L31.5168 86.9768C31.4479 86.9577 31.3767 86.948 31.3053 86.948H17.2625C17.0531 86.948 16.8521 87.031 16.7037 87.1788L2.57779 101.244C2.38211 101.439 2.06553 101.438 1.87069 101.243C1.67585 101.047 1.67652 100.731 1.8722 100.536L15.9981 86.4701C16.334 86.1357 16.7886 85.948 17.2625 85.948H31.3053C31.467 85.948 31.628 85.9699 31.7839 86.0131L45.7148 89.8745C45.9651 89.9439 46.2334 89.8862 46.433 89.72L60.825 77.7425C61.331 77.3214 62.0271 77.2116 62.6381 77.4565L75.6521 82.6733C75.9412 82.7892 76.2715 82.7248 76.4959 82.5088L91.0541 68.5007C91.388 68.1795 91.8333 68 92.2966 68H120.719C120.99 68 121.243 67.861 121.388 67.6316L135.503 45.3289C135.965 44.5989 136.882 44.3024 137.684 44.624L150.464 49.7485C150.736 49.8576 151.047 49.8074 151.271 49.6179L164.87 38.1075C165.67 37.4302 166.879 37.5815 167.487 38.4352L180.248 56.3381C180.582 56.8058 181.287 56.7742 181.577 56.2784L195.227 32.9526C195.819 31.9425 197.203 31.7609 198.035 32.5843L211.835 46.2502C212.032 46.4449 212.316 46.5229 212.584 46.4559L225.791 43.1615C226.308 43.0326 226.855 43.1403 227.284 43.4553L241.455 53.8486C241.59 53.9483 241.755 54.002 241.923 54.002H255.75C256.034 54.002 256.297 53.8497 256.438 53.603L271.066 28.0059C271.203 27.7662 271.508 27.6829 271.748 27.8199Z" fill="#586EE0"/>
<path fill-rule="evenodd" clip-rule="evenodd" d="M197 1.00048V2.01054H196L196 1.00049C196 0.724342 196.224 0.500488 196.5 0.500488C196.776 0.500481 197 0.724342 197 1.00048ZM197 4.03053L197 6.05054H196L196 4.03053H197ZM197 8.07053L197 10.0905H196L196 8.07053H197ZM197 12.1105L197 14.1305H196L196 12.1105H197ZM197 16.1505V18.1705H196L196 16.1505H197ZM197 20.1905L197 22.2105H196L196 20.1905H197ZM197 24.2305L197 26.2505H196L196 24.2305H197ZM197 28.2705L197 30.2905H196L196 28.2705H197ZM197 32.3105L197 34.3305H196L196 32.3105H197ZM197 36.3505L197 38.3705H196L196 36.3505H197ZM197 40.3905L197 42.4105H196L196 40.3905H197ZM197 44.4305L197 46.4505H196L196 44.4305H197ZM197 48.4705L197 50.4905H196L196 48.4705H197ZM197 52.5105L197 54.5305H196L196 52.5105H197ZM197 56.5505L197 58.5705H196L196 56.5505H197ZM197 60.5905L197 62.6105H196L196 60.5905H197ZM197 64.6305L197 66.6505L196 66.6505L196 64.6305L197 64.6305ZM197 68.6705L197 70.6905H196L196 68.6705L197 68.6705ZM197 72.7105L197 74.7305H196L196 72.7105H197ZM197 76.7505L197 78.7705H196L196 76.7505L197 76.7505ZM197 80.7905L197 82.8105H196L196 80.7905H197ZM197 84.8305L197 86.8505H196L196 84.8305H197ZM197 88.8705L197 90.8905H196L196 88.8705L197 88.8705ZM197 92.9105V94.9305H196L196 92.9105H197ZM197 96.9505L197 98.9705H196L196 96.9505H197ZM197 100.99L197 102H196L196 100.99H197Z" fill="#586EE0"/>
<path opacity="0.1" d="M203.702 32.091C203.702 36.1939 200.376 39.52 196.273 39.52C192.17 39.52 188.844 36.1939 188.844 32.091C188.844 27.9881 192.17 24.662 196.273 24.662C200.376 24.662 203.702 27.9881 203.702 32.091Z" fill="#586EE0"/>
<path d="M199.18 32.091C199.18 33.6965 197.878 34.998 196.273 34.998C194.668 34.998 193.366 33.6965 193.366 32.091C193.366 30.4855 194.668 29.184 196.273 29.184C197.878 29.184 199.18 30.4855 199.18 32.091Z" fill="white"/>
<path fill-rule="evenodd" clip-rule="evenodd" d="M200.149 32.091C200.149 34.2316 198.414 35.967 196.273 35.967C194.132 35.967 192.397 34.2316 192.397 32.091C192.397 29.9503 194.132 28.215 196.273 28.215C198.414 28.215 200.149 29.9503 200.149 32.091ZM196.273 34.998C197.878 34.998 199.18 33.6965 199.18 32.091C199.18 30.4855 197.878 29.184 196.273 29.184C194.667 29.184 193.366 30.4855 193.366 32.091C193.366 33.6965 194.667 34.998 196.273 34.998Z" fill="#586EE0"/>
<defs>
<linearGradient id="paint0_linear" x1="1.90206" y1="65.26" x2="1.9022" y2="0.759997" gradientUnits="userSpaceOnUse">
<stop stop-color="#F6F6F9"/>
<stop offset="1" stop-color="#F6F6F9" stop-opacity="0"/>
</linearGradient>
<linearGradient id="paint1_linear" x1="16.9021" y1="65.26" x2="16.9022" y2="0.759997" gradientUnits="userSpaceOnUse">
<stop stop-color="#F6F6F9"/>
<stop offset="1" stop-color="#F6F6F9" stop-opacity="0"/>
</linearGradient>
<linearGradient id="paint2_linear" x1="31.9021" y1="65.26" x2="31.9022" y2="0.759997" gradientUnits="userSpaceOnUse">
<stop stop-color="#F6F6F9"/>
<stop offset="1" stop-color="#F6F6F9" stop-opacity="0"/>
</linearGradient>
<linearGradient id="paint3_linear" x1="46.9021" y1="65.26" x2="46.9022" y2="0.759997" gradientUnits="userSpaceOnUse">
<stop stop-color="#F6F6F9"/>
<stop offset="1" stop-color="#F6F6F9" stop-opacity="0"/>
</linearGradient>
<linearGradient id="paint4_linear" x1="61.9021" y1="65.26" x2="61.9022" y2="0.759997" gradientUnits="userSpaceOnUse">
<stop stop-color="#F6F6F9"/>
<stop offset="1" stop-color="#F6F6F9" stop-opacity="0"/>
</linearGradient>
<linearGradient id="paint5_linear" x1="76.9021" y1="65.26" x2="76.9022" y2="0.759997" gradientUnits="userSpaceOnUse">
<stop stop-color="#F6F6F9"/>
<stop offset="1" stop-color="#F6F6F9" stop-opacity="0"/>
</linearGradient>
<linearGradient id="paint6_linear" x1="91.9021" y1="65.26" x2="91.9022" y2="0.759997" gradientUnits="userSpaceOnUse">
<stop stop-color="#F6F6F9"/>
<stop offset="1" stop-color="#F6F6F9" stop-opacity="0"/>
</linearGradient>
<linearGradient id="paint7_linear" x1="106.902" y1="65.26" x2="106.902" y2="0.759997" gradientUnits="userSpaceOnUse">
<stop stop-color="#F6F6F9"/>
<stop offset="1" stop-color="#F6F6F9" stop-opacity="0"/>
</linearGradient>
<linearGradient id="paint8_linear" x1="121.902" y1="65.26" x2="121.902" y2="0.759999" gradientUnits="userSpaceOnUse">
<stop stop-color="#F6F6F9"/>
<stop offset="1" stop-color="#F6F6F9" stop-opacity="0"/>
</linearGradient>
<linearGradient id="paint9_linear" x1="136.902" y1="65.26" x2="136.902" y2="0.759997" gradientUnits="userSpaceOnUse">
<stop stop-color="#F6F6F9"/>
<stop offset="1" stop-color="#F6F6F9" stop-opacity="0"/>
</linearGradient>
<linearGradient id="paint10_linear" x1="151.902" y1="65.26" x2="151.902" y2="0.759997" gradientUnits="userSpaceOnUse">
<stop stop-color="#F6F6F9"/>
<stop offset="1" stop-color="#F6F6F9" stop-opacity="0"/>
</linearGradient>
<linearGradient id="paint11_linear" x1="166.902" y1="65.26" x2="166.902" y2="0.759997" gradientUnits="userSpaceOnUse">
<stop stop-color="#F6F6F9"/>
<stop offset="1" stop-color="#F6F6F9" stop-opacity="0"/>
</linearGradient>
<linearGradient id="paint12_linear" x1="181.902" y1="65.26" x2="181.902" y2="0.759997" gradientUnits="userSpaceOnUse">
<stop stop-color="#F6F6F9"/>
<stop offset="1" stop-color="#F6F6F9" stop-opacity="0"/>
</linearGradient>
<linearGradient id="paint13_linear" x1="196.902" y1="65.26" x2="196.902" y2="0.759997" gradientUnits="userSpaceOnUse">
<stop stop-color="#F6F6F9"/>
<stop offset="1" stop-color="#F6F6F9" stop-opacity="0"/>
</linearGradient>
<linearGradient id="paint14_linear" x1="211.902" y1="65.26" x2="211.902" y2="0.759997" gradientUnits="userSpaceOnUse">
<stop stop-color="#F6F6F9"/>
<stop offset="1" stop-color="#F6F6F9" stop-opacity="0"/>
</linearGradient>
<linearGradient id="paint15_linear" x1="226.902" y1="65.26" x2="226.902" y2="0.759997" gradientUnits="userSpaceOnUse">
<stop stop-color="#F6F6F9"/>
<stop offset="1" stop-color="#F6F6F9" stop-opacity="0"/>
</linearGradient>
<linearGradient id="paint16_linear" x1="241.902" y1="65.26" x2="241.902" y2="0.759997" gradientUnits="userSpaceOnUse">
<stop stop-color="#F6F6F9"/>
<stop offset="1" stop-color="#F6F6F9" stop-opacity="0"/>
</linearGradient>
<linearGradient id="paint17_linear" x1="256.902" y1="65.26" x2="256.902" y2="0.759997" gradientUnits="userSpaceOnUse">
<stop stop-color="#F6F6F9"/>
<stop offset="1" stop-color="#F6F6F9" stop-opacity="0"/>
</linearGradient>
<linearGradient id="paint18_linear" x1="271.902" y1="65.26" x2="271.902" y2="0.759997" gradientUnits="userSpaceOnUse">
<stop stop-color="#F6F6F9"/>
<stop offset="1" stop-color="#F6F6F9" stop-opacity="0"/>
</linearGradient>
<linearGradient id="paint19_linear" x1="130.496" y1="45.2679" x2="130.496" y2="100.89" gradientUnits="userSpaceOnUse">
<stop stop-color="#586EE0"/>
<stop offset="1" stop-color="#586EE0" stop-opacity="0"/>
</linearGradient>
</defs>
</svg>
