<svg width="227" height="30" viewBox="0 0 227 30" fill="none" xmlns="http://www.w3.org/2000/svg">
<g clip-path="url(#clip0)">
<path d="M77.5381 12.2763H84.2221V23.9737H63V12.2763H69.6839V18.1238H77.5381V12.2763ZM100.117 18.275C100.117 20.2545 98.7942 21.4255 96.9854 21.4255C95.2179 21.4255 93.8753 20.2545 93.8753 18.275V8.85709H90.9084V18.2462C90.9084 21.9534 93.5791 24.2952 96.9927 24.2952C100.406 24.2952 103.099 21.9534 103.099 18.2462V8.85709H100.125L100.117 18.275ZM110.727 13.2049C109.586 13.2049 108.314 13.6848 107.668 14.7814V13.4832H104.888V23.9545H107.755V17.9319C107.755 16.7321 108.484 15.7723 109.737 15.7723C111.116 15.7723 111.698 16.6889 111.698 17.8599V23.9545H114.563V17.3536C114.57 15.0525 113.364 13.2001 110.734 13.2001L110.727 13.2049ZM121.242 17.6127L119.669 17.2936C119.069 17.1736 118.698 16.8689 118.698 16.3578C118.698 15.7603 119.239 15.314 119.992 15.314C121.05 15.314 121.47 15.8539 121.572 16.485H124.044C124.025 15.0453 122.871 13.1641 120.036 13.1641C117.751 13.1641 116.071 14.7166 116.071 16.5906C116.071 18.0614 116.996 19.2756 119.043 19.7099L120.511 20.029C121.33 20.1993 121.653 20.5833 121.653 21.0512C121.653 21.6054 121.133 22.0949 120.196 22.0949C119.052 22.0949 118.431 21.4519 118.285 20.7056H115.736C115.879 22.2725 117.027 24.2664 120.218 24.2664C122.998 24.2664 124.399 22.5196 124.399 20.816C124.396 19.2899 123.34 18.035 121.25 17.6079L121.242 17.6127ZM136.584 18.6997C136.584 21.8718 134.579 24.2184 131.585 24.2184C130.128 24.2184 129.041 23.6426 128.523 22.9395V28.0096H125.659V13.4785H128.438V14.7766C128.924 13.9679 130.097 13.2433 131.692 13.2433C134.802 13.2433 136.591 15.5852 136.591 18.6949L136.584 18.6997ZM133.76 18.7213C133.76 16.8689 132.597 15.7819 131.131 15.7819C129.665 15.7819 128.482 16.8689 128.482 18.7213C128.482 20.5737 129.667 21.6798 131.131 21.6798C132.595 21.6798 133.78 20.5905 133.78 18.7165L133.76 18.7213ZM150.27 13.4832H153.05V23.9545H150.185V22.6804C149.699 23.5202 148.59 24.2112 147.123 24.2112C144.13 24.2112 142.124 21.867 142.124 18.6925C142.124 15.5732 143.914 13.2409 147.017 13.2409C148.612 13.2409 149.765 13.9727 150.27 14.7742V13.4832ZM150.226 18.7213C150.226 16.8689 149.041 15.7819 147.577 15.7819C146.113 15.7819 144.948 16.8641 144.948 18.7165C144.948 20.5689 146.111 21.675 147.577 21.675C149.044 21.675 150.229 20.5713 150.229 18.7165L150.226 18.7213ZM137.927 23.9545H140.792V8.85709H137.927V23.9545ZM170.06 13.2025C169.047 13.2025 167.874 13.5408 167.192 14.3495V8.85709H164.327V23.9521H167.192V17.7999C167.258 16.6481 167.969 15.7555 169.176 15.7555C170.555 15.7555 171.138 16.6745 171.135 17.8455V23.9569H174.002V17.3536C174 15.0525 172.752 13.2025 170.06 13.2025V13.2025ZM159.862 17.6079L158.301 17.2888C157.702 17.1688 157.33 16.8641 157.33 16.353C157.33 15.7555 157.869 15.3092 158.624 15.3092C159.68 15.3092 160.1 15.8491 160.202 16.4802H162.672C162.652 15.0405 161.499 13.1593 158.663 13.1593C156.378 13.1593 154.698 14.7118 154.698 16.5858C154.698 18.0566 155.626 19.2708 157.673 19.7051L159.129 20.0242C159.947 20.1945 160.27 20.5785 160.27 21.0464C160.27 21.6006 159.751 22.0901 158.814 22.0901C157.67 22.0901 157.049 21.4471 156.903 20.7008H154.356C154.497 22.2677 155.645 24.2616 158.835 24.2616C161.615 24.2616 163.016 22.5148 163.016 20.8112C163.016 19.2899 161.96 18.035 159.872 17.6079H159.862ZM77.5381 3H69.6839V8.84749H77.5381V3Z" fill="white"/>
</g>
<defs>
<clipPath id="clip0">
<rect width="111" height="25" fill="white" transform="translate(63 3)"/>
</clipPath>
</defs>
</svg>
