<svg width="227" height="30" viewBox="0 0 227 30" fill="none" xmlns="http://www.w3.org/2000/svg">
<path d="M156.063 11.7971V17.1816C156.063 18.0207 155.852 18.72 155.43 19.0697C155.008 19.4892 154.445 19.7689 153.741 19.7689C153.108 19.7689 152.615 19.5592 152.193 19.1396C151.771 18.72 151.56 18.1606 151.56 17.5312V11.7971H149.378V17.5312C149.378 18.7899 149.73 19.9787 150.504 20.7479C151.208 21.5172 152.193 21.8668 153.389 21.8668C153.741 21.8668 154.093 21.7969 154.374 21.7269C154.726 21.657 155.008 21.5172 155.219 21.3773C155.43 21.3074 155.712 21.1675 155.852 21.0277C155.923 20.9577 155.993 20.9577 156.063 20.8179L156.134 20.7479V21.5871H158.315V11.6572L156.063 11.7971Z" fill="white"/>
<path d="M71.5447 19.7694C69.152 19.7694 67.252 17.8813 67.252 15.5037C67.252 13.1262 69.152 11.2381 71.5447 11.2381C72.9522 11.2381 74.2893 11.9374 75.0634 13.0562L76.9635 11.9374C75.8375 10.1892 73.7967 9.07031 71.5447 9.07031C67.9557 9.07031 65 12.0073 65 15.5737C65 19.14 67.9557 22.077 71.5447 22.077C73.7967 22.077 75.7672 20.9582 76.9635 19.21L75.0634 18.0911C74.2189 19.0701 72.9522 19.7694 71.5447 19.7694Z" fill="white"/>
<path d="M161.975 9.07031H159.793V21.7274H161.975V9.07031Z" fill="white"/>
<path d="M123.057 9.14025L119.468 15.224L115.879 9.14025L113.064 9.07031V21.7973H115.246V12.357L118.694 18.161H120.243L123.761 12.357V21.7973H125.943V9.14025H123.057Z" fill="white"/>
<path d="M108.632 14.0347H111.587V11.8669H108.632V9.13965H106.45V17.6709V18.0905C106.45 20.2583 107.435 21.8667 110.18 21.8667H111.587V19.6289H110.321C108.773 19.6289 108.561 18.8597 108.561 18.0905V17.7409L108.632 14.0347Z" fill="white"/>
<path d="M98.0753 16.9017C98.0753 16.8317 98.0753 16.8317 98.0753 16.7618V11.7969H95.8937V12.7059C95.0492 12.0766 94.064 11.7969 93.0084 11.7969C90.1934 11.7969 87.8711 14.1045 87.8711 16.9017C87.8711 19.6988 90.1934 22.0065 93.0084 22.0065C94.1343 22.0065 95.0492 21.6568 95.8937 21.0974V21.7967H98.0753V17.1114C98.0753 16.9716 98.0753 16.9716 98.0753 16.9017ZM92.938 19.7687C91.3898 19.7687 90.0527 18.51 90.0527 16.9017C90.0527 15.2933 91.3194 14.0346 92.938 14.0346C94.4862 14.0346 95.8233 15.2933 95.8233 16.9017C95.8233 18.51 94.5566 19.7687 92.938 19.7687Z" fill="white"/>
<path d="M104.832 11.7965C104.409 11.7965 103.002 11.8664 101.806 12.6356V11.7965H99.624V21.7963H101.806V16.3419C101.806 15.7125 101.946 15.223 102.228 14.9433C102.932 14.1041 104.409 13.9643 104.55 13.9643C104.621 13.9643 104.761 13.8943 104.902 13.8943C105.184 13.8943 105.465 13.8943 105.465 13.8943V11.7266C105.465 11.7266 105.254 11.7266 105.113 11.7266C105.043 11.7965 104.832 11.7965 104.832 11.7965Z" fill="white"/>
<path d="M131.996 22.0065C129.181 22.0065 126.858 19.6988 126.858 16.9017C126.858 14.1045 129.181 11.7969 131.996 11.7969C134.811 11.7969 137.133 14.1045 137.133 16.9017C137.063 19.6988 134.811 22.0065 131.996 22.0065ZM131.996 14.0346C130.447 14.0346 129.11 15.2933 129.11 16.9017C129.11 18.51 130.377 19.7687 131.996 19.7687C133.614 19.7687 134.881 18.51 134.881 16.9017C134.881 15.3632 133.614 14.0346 131.996 14.0346Z" fill="white"/>
<path d="M145.718 11.7969V12.636C144.873 12.0766 143.888 11.7969 142.833 11.7969C140.018 11.7969 137.695 14.1045 137.695 16.9017C137.695 19.6988 140.018 22.0065 142.833 22.0065C143.888 22.0065 144.873 21.6568 145.718 21.1673C145.718 21.1673 145.718 21.2372 145.718 21.3771C145.718 21.517 145.648 21.5869 145.648 21.5869C145.577 22.2862 145.155 22.9855 144.803 23.475C144.24 24.0344 143.536 24.2442 142.762 24.2442H142.692C141.566 24.1742 140.581 23.6847 139.947 22.8456L138.399 24.384C139.244 25.6427 140.932 26.412 142.762 26.412C144.17 26.412 145.366 25.9225 146.422 24.8735C147.336 23.8945 147.829 22.7757 147.829 21.3771C147.829 21.3771 147.829 21.1673 147.829 21.0275C147.829 20.9575 147.829 20.6079 147.829 20.6079V11.7969H145.718ZM142.833 19.7687C141.284 19.7687 139.947 18.51 139.947 16.9017C139.947 15.2933 141.214 14.0346 142.833 14.0346C144.451 14.0346 145.718 15.2933 145.718 16.9017C145.718 18.51 144.381 19.7687 142.833 19.7687Z" fill="white"/>
<path d="M86.745 16.0628C86.745 13.4754 84.9153 11.7971 82.4522 11.7971C81.6077 11.7971 80.6929 12.0769 79.9891 12.4964V9H77.8779V21.727H80.0595V16.832C80.0595 16.7621 80.0595 16.6222 80.0595 16.6222C80.0595 15.7831 80.2706 15.1537 80.6929 14.7341C81.0447 14.3146 81.5374 14.1048 82.1003 14.0349C82.1707 14.0349 82.2411 14.0349 82.3115 14.0349C82.3818 14.0349 82.4522 14.0349 82.5226 14.0349C83.156 14.1048 83.5782 14.3146 83.9301 14.7341C84.2819 15.2236 84.5634 15.7831 84.5634 16.5523C84.5634 16.6222 84.5634 16.7621 84.5634 16.9019V21.8669H86.745V16.2726V16.0628Z" fill="white"/>
</svg>
