<svg width="209" height="68" viewBox="0 0 209 68" fill="none" xmlns="http://www.w3.org/2000/svg">
<path fill-rule="evenodd" clip-rule="evenodd" d="M0 67V3.75H24.0921C41.4526 3.75 49.5128 11.4462 49.5128 24.8923V25.2462C49.5128 38.5154 40.5668 45.6808 24.8893 45.6808H18.0691V67H0ZM18.0691 33.2962H23.2949C29.1408 33.2962 32.2409 30.5538 32.2409 25.3346V24.9808C32.2409 19.5846 29.0522 17.3731 23.3835 17.3731H18.0691V33.2962ZM56.5633 67V20.7725H72.4685V67H56.5633ZM64.4715 16.3522C59.4956 16.3522 55.7636 12.905 55.7636 8.22032C55.7636 3.53562 59.4956 0 64.4715 0C69.4474 0 73.2682 3.53562 73.2682 8.22032C73.2682 12.905 69.4474 16.3522 64.4715 16.3522ZM96.9936 68C86.5892 68 80.7698 62.955 80.7698 52.0683V31.4457V20.6475V11H96.5528V20.7725H105.635V31.4457H96.5528V50.5637C96.5528 53.927 98.2281 55.4317 101.226 55.4317C102.989 55.4317 104.062 55.1661 105.473 54.6351V66.6724C103.445 67.2034 100.697 68 96.9936 68ZM133.761 68C119.984 68 109.475 59.9608 109.475 44.4126V43.7058C109.475 28.3342 120.514 19.5 134.114 19.5C145.418 19.5 155.839 24.4472 156.722 38.4936H141.885C141.18 34.1648 139.06 31.7796 134.467 31.7796C128.905 31.7796 125.636 35.7559 125.636 43.53V44.235C125.636 52.01 128.905 56.4271 134.467 56.4271C139.06 56.4271 141.18 53.7769 141.769 48.7413H156.737C156.295 60.4025 148.685 68 133.761 68ZM162.738 67V3.75H178.602V28.2304C181.083 23.4615 186.135 19.5757 193.845 19.5757C202.796 19.5757 209 25.1394 209 36.9734V67H193.136V40.1527C193.136 34.9422 191.098 32.3811 186.489 32.3811C181.792 32.3811 178.602 35.2072 178.602 41.1242V67H162.738Z" fill="#222224"/>
</svg>
