<svg width="32" height="26" fill="none" xmlns="http://www.w3.org/2000/svg"><path d="M1 4a3 3 0 0 1 3-3h24a3 3 0 0 1 3 3v18a3 3 0 0 1-3 3H4a3 3 0 0 1-3-3V4Z" fill="#fff"/><path fill-rule="evenodd" clip-rule="evenodd" d="M4 0h24a4 4 0 0 1 4 4v18a4 4 0 0 1-4 4H4a4 4 0 0 1-4-4V4a4 4 0 0 1 4-4Zm0 1a3 3 0 0 0-3 3v18a3 3 0 0 0 3 3h24a3 3 0 0 0 3-3V4a3 3 0 0 0-3-3H4Z" fill="#DFDFE1"/><path d="M4 6a1 1 0 0 1 1-1h4a1 1 0 0 1 1 1v2a1 1 0 0 1-1 1H5a1 1 0 0 1-1-1V6ZM4 12a1 1 0 0 1 1-1h4a1 1 0 0 1 1 1v2a1 1 0 0 1-1 1H5a1 1 0 0 1-1-1v-2ZM4 18a1 1 0 0 1 1-1h4a1 1 0 0 1 1 1v2a1 1 0 0 1-1 1H5a1 1 0 0 1-1-1v-2Z" fill="#767684"/><path opacity=".4" d="M13 6a1 1 0 0 1 1-1h4a1 1 0 0 1 1 1v2a1 1 0 0 1-1 1h-4a1 1 0 0 1-1-1V6ZM13 12a1 1 0 0 1 1-1h4a1 1 0 0 1 1 1v2a1 1 0 0 1-1 1h-4a1 1 0 0 1-1-1v-2ZM13 18a1 1 0 0 1 1-1h4a1 1 0 0 1 1 1v2a1 1 0 0 1-1 1h-4a1 1 0 0 1-1-1v-2ZM22 6a1 1 0 0 1 1-1h4a1 1 0 0 1 1 1v2a1 1 0 0 1-1 1h-4a1 1 0 0 1-1-1V6ZM22 12a1 1 0 0 1 1-1h4a1 1 0 0 1 1 1v2a1 1 0 0 1-1 1h-4a1 1 0 0 1-1-1v-2ZM22 18a1 1 0 0 1 1-1h4a1 1 0 0 1 1 1v2a1 1 0 0 1-1 1h-4a1 1 0 0 1-1-1v-2Z" fill="#939DA8"/></svg>