<svg width="51" height="38" viewBox="0 0 51 38" fill="none" xmlns="http://www.w3.org/2000/svg">
    <path fill-rule="evenodd" clip-rule="evenodd" d="M2 38C0.895431 38 0 37.1046 0 36V26H12V38H2ZM13 38V26H25V38H13ZM26 38V26H38V38H26ZM39 38V26H51V36C51 37.1046 50.1046 38 49 38H39ZM51 25H39V13H51V25ZM51 12H39V0H49C50.1046 0 51 0.895432 51 2V12ZM38 0V12H26V0H38ZM25 0V12H13V0H25ZM12 0V12H0V2C0 0.895432 0.89543 0 2 0H12ZM0 13H12V25H0V13ZM26 25H38V13H26V25ZM25 13V25H13V13H25Z" fill="#D2D2D5"/>
    <path d="M0 36C0 37.1046 0.895431 38 2 38H49C50.1046 38 51 37.1046 51 36V26H0V36Z" fill="#A7A7A7"/>
</svg>
